<?xml version="1.0" encoding="utf-8"?>
<!-- Generator: Adobe Illustrator 22.1.0, SVG Export Plug-In . SVG Version: 6.00 Build 0)  -->
<svg version="1.1" id="Layer_1" xmlns="http://www.w3.org/2000/svg" xmlns:xlink="http://www.w3.org/1999/xlink" x="0px" y="0px"
	 viewBox="0 0 256 256" style="enable-background:new 0 0 256 256;" xml:space="preserve">
<style type="text/css">
	.st0{fill:#FFFFFF;}
</style>
<path class="st0" d="M142,223.3L142,223.3c-7.6,7.6-20,7.6-27.6,0l-82-82c-7.6-7.6-7.6-20,0-27.6l0,0c7.6-7.6,20-7.6,27.6,0l82,82
	C149.6,203.3,149.6,215.7,142,223.3z"/>
<path class="st0" d="M114.3,223.3L114.3,223.3c7.6,7.6,20,7.6,27.6,0l82-82c7.6-7.6,7.6-20,0-27.6l0,0c-7.6-7.6-20-7.6-27.6,0
	l-82,82C106.7,203.3,106.7,215.7,114.3,223.3z"/>
<path class="st0" d="M142,141.3L142,141.3c-7.6,7.6-20,7.6-27.6,0l-82-82c-7.6-7.6-7.6-20,0-27.6l0,0c7.6-7.6,20-7.6,27.6,0l82,82
	C149.6,121.3,149.6,133.7,142,141.3z"/>
<path class="st0" d="M114.3,141.3L114.3,141.3c7.6,7.6,20,7.6,27.6,0l82-82c7.6-7.6,7.6-20,0-27.6l0,0c-7.6-7.6-20-7.6-27.6,0
	l-82,82C106.7,121.3,106.7,133.7,114.3,141.3z"/>
</svg>
