<?xml version="1.0" encoding="utf-8"?>
<!-- Generator: Adobe Illustrator 22.1.0, SVG Export Plug-In . SVG Version: 6.00 Build 0)  -->
<svg version="1.1" xmlns="http://www.w3.org/2000/svg" xmlns:xlink="http://www.w3.org/1999/xlink" x="0px" y="0px"
	 viewBox="0 0 1366 768" style="enable-background:new 0 0 1366 768;" xml:space="preserve">
<style type="text/css">
	.st0{fill:url(#SVGID_1_);}
	.st1{fill:#0134A1;}
	.st2{fill:#002994;}
	.st3{fill:#002D9A;}
	.st4{fill:#0946A8;}
	.st5{fill:#001777;}
	.st6{fill:#1665B3;}
	.st7{fill:#002085;}
	.st8{fill:#0A48A8;}
	.st9{fill:#0A2E99;}
	.st10{fill:#1158AE;}
	.st11{fill:#1B5DB3;}
	.st12{fill:#1562B1;}
	.st13{fill:#1F67B6;}
	.st14{fill:#053CA4;}
	.st15{fill:#0F41A9;}
	.st16{fill:#0338A3;}
	.st17{fill:#0D3DA8;}
	.st18{fill:#2871C4;}
	.st19{fill:#001A7B;}
	.st20{fill:#3E7FDA;}
	.st21{fill:#002B96;}
	.st22{fill:#043AA3;}
	.st23{fill:#043BA3;}
	.st24{fill:#4C88E8;}
	.st25{fill:#508BEC;}
	.st26{fill:#001878;}
	.st27{fill:#00126F;}
	.st28{fill:#001879;}
	.st29{fill:#002086;}
	.st30{fill:#002E9B;}
	.st31{fill:#00238B;}
	.st32{fill:#0A2890;}
	.st33{fill:#0A1D7D;}
	.st34{fill:#0E40A8;}
	.st35{fill:#4E88E5;}
	.st36{fill:#4483E0;}
	.st37{fill:#4280D9;}
	.st38{fill:#387BD4;}
	.st39{fill:#4986E5;}
	.st40{fill:#538BEA;}
	.st41{fill:#347AD5;}
	.st42{fill:#1663B2;}
	.st43{fill:#2068B7;}
	.st44{fill:#266EBD;}
	.st45{fill:#1C69B8;}
	.st46{fill:#002289;}
	.st47{fill:#0E3FA8;}
	.st48{fill:#0039C9;}
	.st49{fill:#0F67F5;}
	.st50{fill:#002CCC;}
	.st51{fill:#5093FF;}
	.st52{fill:#055DEB;}
	.st53{fill:#0031D1;}
	.st54{fill:#2E7DE5;}
	.st55{fill:#002CDE;}
	.st56{fill:#3D94FF;}
	.st57{fill:#001EA6;}
	.st58{fill:#001CBA;}
	.st59{fill:#003BDE;}
	.st60{display:none;}
</style>
<g id="Background">
	<g>
		<linearGradient id="SVGID_1_" gradientUnits="userSpaceOnUse" x1="683" y1="768" x2="683" y2="-9.094947e-13">
			<stop  offset="0" style="stop-color:#518BED"/>
			<stop  offset="5.326282e-02" style="stop-color:#4885E4"/>
			<stop  offset="0.1415" style="stop-color:#2E75CA"/>
			<stop  offset="0.2077" style="stop-color:#1766B3"/>
			<stop  offset="0.3241" style="stop-color:#0D4FAB"/>
			<stop  offset="0.4538" style="stop-color:#0031A0"/>
			<stop  offset="0.9944" style="stop-color:#000961"/>
		</linearGradient>
		<rect class="st0" width="1366" height="768"/>
	</g>
</g>
<g id="Layer_3">
	<path class="st1" d="M529.2,318l-152.3,87.9c-9.6,5.5-21.8,2.2-27.3-7.3v0c-5.5-9.6-2.2-21.8,7.3-27.3l152.3-87.9
		c9.6-5.5,21.8-2.2,27.3,7.3v0C542.1,300.2,538.8,312.5,529.2,318z"/>
	<path class="st2" d="M791.1,199.1l-90,52c-7.2,4.1-16.3,1.7-20.5-5.5v0c-4.1-7.2-1.7-16.3,5.5-20.5l90-52
		c7.2-4.1,16.3-1.7,20.5,5.5v0C800.8,185.8,798.3,195,791.1,199.1z"/>
	<path class="st3" d="M1346,216.6l-94.4,54.5c-6,3.5-13.6,1.4-17.1-4.6l0,0c-3.5-6-1.4-13.6,4.6-17.1l94.4-54.5
		c6-3.5,13.6-1.4,17.1,4.6v0C1354.1,205.5,1352,213.2,1346,216.6z"/>
	<path class="st4" d="M547,425.6l-94.4,54.5c-6,3.5-13.6,1.4-17.1-4.6l0,0c-3.5-6-1.4-13.6,4.6-17.1l94.4-54.5
		c6-3.5,13.6-1.4,17.1,4.6h0C555.1,414.5,553,422.2,547,425.6z"/>
	<path class="st5" d="M413,54.7l-46.1,26.6c-3.6,2.1-8.2,0.8-10.2-2.7v0c-2.1-3.6-0.8-8.2,2.7-10.2l46.1-26.6
		c3.6-2.1,8.2-0.8,10.2,2.7l0,0C417.8,48,416.5,52.6,413,54.7z"/>
	<path class="st6" d="M390,566.7l-46.1,26.6c-3.6,2.1-8.2,0.8-10.2-2.7l0,0c-2.1-3.6-0.8-8.2,2.7-10.2l46.1-26.6
		c3.6-2.1,8.2-0.8,10.2,2.7h0C394.8,560,393.5,564.6,390,566.7z"/>
	<path class="st7" d="M1192,85.7l-46.1,26.6c-3.6,2.1-8.2,0.8-10.2-2.7v0c-2.1-3.6-0.8-8.2,2.7-10.2l46.1-26.6
		c3.6-2.1,8.2-0.8,10.2,2.7v0C1196.8,79,1195.5,83.6,1192,85.7z"/>
	<path class="st8" d="M1260,465.7l-46.1,26.6c-3.6,2.1-8.2,0.8-10.2-2.7v0c-2.1-3.6-0.8-8.2,2.7-10.2l46.1-26.6
		c3.6-2.1,8.2-0.8,10.2,2.7v0C1264.8,459,1263.5,463.6,1260,465.7z"/>
	<g>
		<path class="st2" d="M188.4,254L188.4,254c-7.3-12.6-2.9-28.9,9.7-36.2l100.8-58.2c-1.2,0.5-2.4,1-3.5,1.7l-153.3,88.5
			c-12.6,7.3-17,23.6-9.7,36.2l0,0c7.3,12.6,23.6,17,36.2,9.7l52.5-30.3C209.1,270.1,195,265.5,188.4,254z"/>
		<path class="st9" d="M331.6,171L331.6,171c-6.6-11.5-20.7-16.1-32.7-11.4l-100.8,58.2c-12.6,7.3-17,23.6-9.7,36.2l0,0
			c6.6,11.5,20.7,16.1,32.7,11.4l100.8-58.2C334.5,199.9,338.9,183.6,331.6,171z"/>
	</g>
	<g>
		<path class="st10" d="M62.6,504.7L62.6,504.7c-2.6-4.6-1.7-10.2,2-13.6l-31.9,18.4c-5.3,3.1-7.2,9.9-4.1,15.2v0
			c3.1,5.3,9.9,7.2,15.2,4.1l90.1-52c0.8-0.5,1.5-1,2.1-1.6l-58.2,33.6C72.5,511.8,65.7,510,62.6,504.7z"/>
		<path class="st11" d="M138,461.5c-3.1-5.3-9.9-7.2-15.2-4.1L64.6,491c-3.6,3.5-4.6,9.1-2,13.6v0c3.1,5.3,9.9,7.2,15.2,4.1
			l58.2-33.6C139.7,471.7,140.6,466,138,461.5z"/>
	</g>
	<g>
		<path class="st12" d="M759.5,540.5L759.5,540.5c-2.3-4-1.6-8.8,1.5-11.9l-17.8,10.3c-4.8,2.8-6.4,8.9-3.7,13.7l0,0
			c2.8,4.8,8.9,6.4,13.7,3.7l65.8-38c0.8-0.5,1.6-1.1,2.2-1.7l-48,27.7C768.4,546.9,762.2,545.2,759.5,540.5z"/>
		<path class="st13" d="M822.6,504.5c-2.8-4.8-8.9-6.4-13.7-3.7l-48,27.7c-3,3.1-3.8,8-1.5,11.9l0,0c2.8,4.8,8.9,6.4,13.7,3.7
			l48-27.7C824.1,513.3,824.9,508.4,822.6,504.5z"/>
	</g>
	<g>
		<path class="st14" d="M605.6,396.5L605.6,396.5c-1.8-3.1-1.1-7,1.5-9.3l-15.7,9.1c-3.6,2.1-4.8,6.7-2.7,10.2v0
			c2.1,3.6,6.7,4.8,10.2,2.7l46.1-26.6c0.5-0.3,0.9-0.6,1.3-0.9l-30.3,17.5C612.3,401.3,607.7,400.1,605.6,396.5z"/>
		<path class="st15" d="M647.7,372.4c-2.1-3.6-6.7-4.8-10.2-2.7l-30.3,17.5c-2.6,2.3-3.3,6.2-1.5,9.3v0c2.1,3.6,6.7,4.8,10.2,2.7
			l30.3-17.5C648.8,379.4,649.5,375.5,647.7,372.4z"/>
	</g>
	<g>
		<path class="st16" d="M913.6,378.6c-5.5-9.6-2.2-21.8,7.3-27.3l113.7-65.7c-0.5,0.2-1,0.5-1.4,0.7l-152.3,87.9
			c-9.6,5.5-12.8,17.8-7.3,27.3s17.8,12.8,27.3,7.3l38.6-22.3C930.2,391.1,918.9,387.7,913.6,378.6z"/>
		<path class="st17" d="M1060.5,293.7c-5.3-9.1-16.6-12.5-25.9-8.1l-113.7,65.7c-9.6,5.5-12.8,17.8-7.3,27.3
			c5.3,9.1,16.6,12.5,25.9,8.1l113.7-65.7C1062.8,315.5,1066.1,303.2,1060.5,293.7z"/>
	</g>
</g>
<g id="Clouds">
	<path class="st18" d="M67.9,609.6l49.6-28.6c9.5-5.5,12.8-17.8,7.3-27.3h0c-5.5-9.5-17.8-12.8-27.3-7.3L47.9,575
		c-9.5,5.5-12.8,17.8-7.3,27.3h0C46,611.8,58.3,615.1,67.9,609.6z"/>
	<path class="st18" d="M60,613l57.3,0c11,0,20-9,20-20l0,0c0-11-9-20-20-20L60,573c-11,0-20,9-20,20l0,0C40,604,49,613,60,613z"/>
	<path class="st19" d="M1212.5,142l69.3-40c7.1-4.1,9.6-13.3,5.5-20.5v0c-4.1-7.1-13.3-9.6-20.5-5.5l-69.3,40
		c-7.1,4.1-9.6,13.3-5.5,20.5v0C1196.2,143.6,1205.4,146.1,1212.5,142z"/>
	<path class="st20" d="M1186.5,679l69.3-40c7.1-4.1,9.6-13.3,5.5-20.5l0,0c-4.1-7.1-13.3-9.6-20.5-5.5l-69.3,40
		c-7.1,4.1-9.6,13.3-5.5,20.5l0,0C1170.2,680.6,1179.4,683.1,1186.5,679z"/>
	<path class="st21" d="M309.5,281l40.6-23.4c7.1-4.1,9.6-13.3,5.5-20.5v0c-4.1-7.1-13.3-9.6-20.5-5.5L294.5,255
		c-7.1,4.1-9.6,13.3-5.5,20.5v0C293.2,282.6,302.4,285.1,309.5,281z"/>
	<g>
		<path class="st5" d="M257.2,132h10.7l16.7-9.7c8.2-4.7,18-4.3,25.5,0.3c10.7-7.3,14.2-21.8,7.6-33.2v0c-6.9-11.9-22.2-16-34.2-9.2
			l-26.8,15.5C261.6,107.6,261.5,120.6,257.2,132z"/>
		<path class="st5" d="M294.1,132H319c-0.1-0.2-0.2-0.3-0.3-0.5v0c-2.2-3.7-5.2-6.7-8.6-8.8c-0.5,0.3-1,0.7-1.5,1L294.1,132z"/>
		<path class="st5" d="M284.6,122.3l-16.7,9.7h26.3l14.5-8.3c0.5-0.3,1-0.6,1.5-1C302.6,118.1,292.8,117.6,284.6,122.3z"/>
		<path class="st5" d="M141.8,119.6L120.4,132h73.7l62.7-36.2c-0.9-2.1-1.9-4.3-3.1-6.3l0,0c-13.7-23.8-44.5-32.1-68.3-18.3
			l-36.4,21c0,0,0.1,0.1,0.1,0.1C154.7,101.8,151.4,114.1,141.8,119.6z"/>
		<path class="st5" d="M257.2,132c4.3-11.4,4.3-24.4-0.4-36.2L194.1,132H257.2z"/>
		<path class="st5" d="M149.1,92.2c-5.5-9.4-17.8-12.7-27.2-7.2l-52,30c-6.3,3.6-9.8,10.2-10,17h20.2L149.1,92.2z"/>
		<path class="st5" d="M120.4,132l21.4-12.4c9.5-5.5,12.8-17.8,7.3-27.3c0,0-0.1-0.1-0.1-0.1L80.1,132H120.4z"/>
	</g>
	<g>
		<path class="st22" d="M1154.8,396.6l-24.9,14.4h26.2l34.7-20c5.1-3,11-3.4,16.3-1.6l4.7-2.7c9.5-5.5,12.8-17.8,7.3-27.3
			c-5.5-9.5-17.8-12.8-27.3-7.3l-29.8,17.2c0,0,0.1,0.1,0.1,0.1C1167.7,378.8,1164.4,391.1,1154.8,396.6z"/>
		<path class="st22" d="M1220.6,411c0.6-4.2-0.2-8.7-2.5-12.7c-2.5-4.4-6.6-7.5-11.1-8.9l-37.5,21.6H1220.6z"/>
		<path class="st22" d="M1190.8,391l-34.7,20h13.4l37.5-21.6C1201.9,387.6,1196,388,1190.8,391z"/>
		<path class="st22" d="M1104.2,402.6l57.8-33.4c-5.5-9.4-17.8-12.7-27.2-7.2l-52,30c-6.9,4-10.5,11.5-9.9,19h23.4
			C1098,407.6,1100.7,404.6,1104.2,402.6z"/>
		<path class="st22" d="M1096.3,411h33.6l24.9-14.4c9.5-5.5,12.8-17.8,7.3-27.3c0,0-0.1-0.1-0.1-0.1l-57.8,33.4
			C1100.7,404.6,1098,407.6,1096.3,411z"/>
	</g>
	<g>
		<path class="st23" d="M40.3,442"/>
		<line class="st23" x1="120.3" y1="442" x2="118.7" y2="442"/>
	</g>
	<path class="st24" d="M1003.7,657.1l-78.8,45.5c-4,2.3-9.3,0.9-11.6-3.1l0,0c-2.3-4-0.9-9.3,3.1-11.6l78.8-45.5
		c4-2.3,9.3-0.9,11.6,3.1l0,0C1009.1,649.5,1007.7,654.8,1003.7,657.1z"/>
	<path class="st5" d="M218.9,62.3l-84.9,49c-2.4,1.4-5.5,0.6-6.8-1.8l0,0c-1.4-2.4-0.6-5.5,1.8-6.8l84.9-49c2.4-1.4,5.5-0.6,6.8,1.8
		v0C222.1,57.9,221.3,61,218.9,62.3z"/>
	<path class="st5" d="M263.9,56.3l-84.9,49c-2.4,1.4-5.5,0.6-6.8-1.8v0c-1.4-2.4-0.6-5.5,1.8-6.8l84.9-49c2.4-1.4,5.5-0.6,6.8,1.8v0
		C267.1,51.9,266.3,55,263.9,56.3z"/>
	<path class="st25" d="M1313.4,667.4l-82.3,47.5c-3.1,1.8-7.1,0.7-8.9-2.4l0,0c-1.8-3.1-0.7-7.1,2.4-8.9l82.3-47.5
		c3.1-1.8,7.1-0.7,8.9,2.4l0,0C1317.6,661.6,1316.5,665.6,1313.4,667.4z"/>
	<path class="st25" d="M1313.4,705.4l-82.3,47.5c-3.1,1.8-7.1,0.7-8.9-2.4l0,0c-1.8-3.1-0.7-7.1,2.4-8.9l82.3-47.5
		c3.1-1.8,7.1-0.7,8.9,2.4l0,0C1317.6,699.6,1316.5,703.6,1313.4,705.4z"/>
	<path class="st22" d="M1240.9,352.3l-38.3,22.1c-2.4,1.4-5.5,0.6-6.8-1.8l0,0c-1.4-2.4-0.6-5.5,1.8-6.8l38.3-22.1
		c2.4-1.4,5.5-0.6,6.8,1.8l0,0C1244.1,347.9,1243.3,351,1240.9,352.3z"/>
	<path class="st20" d="M456.9,622.3l-38.3,22.1c-2.4,1.4-5.5,0.6-6.8-1.8h0c-1.4-2.4-0.6-5.5,1.8-6.8l38.3-22.1
		c2.4-1.4,5.5-0.6,6.8,1.8l0,0C460.1,617.9,459.3,621,456.9,622.3z"/>
	<path class="st24" d="M1014.9,680.3l-38.3,22.1c-2.4,1.4-5.5,0.6-6.8-1.8l0,0c-1.4-2.4-0.6-5.5,1.8-6.8l38.3-22.1
		c2.4-1.4,5.5-0.6,6.8,1.8l0,0C1018.1,675.9,1017.3,679,1014.9,680.3z"/>
	<path class="st22" d="M1170.9,352.3l-38.3,22.1c-2.4,1.4-5.5,0.6-6.8-1.8l0,0c-1.4-2.4-0.6-5.5,1.8-6.8l38.3-22.1
		c2.4-1.4,5.5-0.6,6.8,1.8l0,0C1174.1,347.9,1173.3,351,1170.9,352.3z"/>
	<g>
		<path class="st7" d="M680.9,26.3c-9.6,5.5-12.8,17.8-7.3,27.3s17.8,12.8,27.3,7.3L808.2-1h-80L680.9,26.3z"/>
		<path class="st26" d="M145.1,19.1c-7.2,4.1-9.6,13.3-5.5,20.5c4.1,7.2,13.3,9.6,20.5,5.5L239.9-1h-60L145.1,19.1z"/>
		<path class="st27" d="M12.4,6.3c-3.6,2.1-4.8,6.7-2.7,10.2v0c2.1,3.6,6.7,4.8,10.2,2.7L55-1H25L12.4,6.3z"/>
		<path class="st28" d="M1076.6,3.8c-7.4,4.3-9.9,13.8-5.7,21.2l0,0c4.3,7.4,13.8,9.9,21.2,5.7l37.2-21.5c3.9-2.3,6.5-6,7.4-10.2
			H1085L1076.6,3.8z"/>
	</g>
	<g>
		<path class="st24" d="M714.1,720.9c-1-3.4-2.4-6.7-4.2-9.9l0,0c-12.4-21.4-40-28.8-61.5-16.5L517.7,770H629L714.1,720.9z"/>
		<path class="st24" d="M697.2,770h105.5l51.1-29.5c6.6-3.8,13.8-5.5,20.9-5.3c3.1-13.2,1.5-27.6-5.8-40.2l0,0
			c-15.1-26.2-48.9-35.3-75.1-20.1l-79.7,46C719.3,738.9,712.8,758.8,697.2,770z"/>
		<path class="st24" d="M697.2,770c15.6-11.2,22.1-31.1,16.9-49.1L629,770H697.2z"/>
		<path class="st24" d="M849,770h64.5c-0.6-5.1-2.3-10.2-5-14.9l0,0c-7.2-12.5-20.3-19.6-33.8-20C871.3,749.3,862.4,762.1,849,770z"
			/>
		<path class="st24" d="M853.8,740.5L802.7,770H849c13.5-7.9,22.4-20.7,25.7-34.8C867.6,735,860.4,736.7,853.8,740.5z"/>
		<path class="st25" d="M1171.8,743l-46.8,27h110.6l31.2-18c4.5-2.6,9.7-2.6,14-0.5c11-12.5,13.4-31.2,4.6-46.4l0,0
			c-11-19.1-35.6-25.6-54.6-14.6l-54,31.2c0.2,0.3,0.4,0.5,0.5,0.8C1181.4,729.6,1179,738.9,1171.8,743z"/>
		<path class="st25" d="M1270.8,759.8l-17.7,10.2h35.3c1.4-4,1.2-8.6-1.1-12.5v0c-1.6-2.7-3.8-4.7-6.5-6
			C1278.1,754.7,1274.7,757.5,1270.8,759.8z"/>
		<path class="st25" d="M1266.8,752l-31.2,18h17.4l17.7-10.2c3.9-2.2,7.2-5.1,10-8.3C1276.5,749.4,1271.3,749.4,1266.8,752z"/>
		<path class="st25" d="M1176.8,721.7c-4.3-6.5-13.1-8.6-20-4.7l-91.8,53h28.1L1176.8,721.7z"/>
		<path class="st25" d="M1125,770l46.8-27c7.1-4.1,9.6-13.3,5.5-20.5c-0.2-0.3-0.3-0.5-0.5-0.8l-83.7,48.3H1125z"/>
		<path class="st29" d="M86.6,170.5L86.6,170.5c-3.5-6-11.1-8-17.1-4.6L0,206.1V235l82-47.4C88,184.2,90.1,176.5,86.6,170.5z"/>
		<path class="st21" d="M43.8,270.1c-4.3-7.4-13.8-9.9-21.2-5.7L0,277.5v35.8l38.1-22C45.5,287,48.1,277.5,43.8,270.1z"/>
		<path class="st30" d="M27,331L27,331c-4.3-7.4-13.8-9.9-21.2-5.7L0,328.7v35.8l21.4-12.3C28.8,347.9,31.3,338.4,27,331z"/>
	</g>
	<g>
		<path class="st31" d="M506,191.4c0-11,9-20,20-20h15.7c-2.9-2.6-5.4-5.8-7.4-9.3l0,0c-6.4-11.1-6.8-24.2-2.3-35.3l-19.1,11
			c-19.1,11-25.6,35.6-14.6,54.6l0,0c3.4,5.9,8.1,10.6,13.6,14c-3.6-3.6-5.8-8.6-5.8-14.1V191.4z"/>
		<path class="st31" d="M535.2,212.4h-4.3C532.3,212.5,533.7,212.5,535.2,212.4z"/>
		<path class="st31" d="M526,212.4h4.8c-6.7-0.4-13.3-2.4-19-5.9C515.5,210.1,520.5,212.4,526,212.4z"/>
		<path class="st31" d="M552.9,207.1c-5.6,3.2-11.7,4.9-17.7,5.3l80.8,0c11,0,20-9,20-20v-1c0-3.4-0.9-6.6-2.4-9.4l-37.2,0
			L552.9,207.1z"/>
		<path class="st31" d="M596.4,182l-25.3,0c-1.4,0.1-2.9,0.1-4.3,0H562c-5.5,0-10.5-2.3-14.2-5.9c-2.2-1.3-4.2-2.9-6.2-4.7H526
			c-11,0-20,9-20,20v1c0,5.5,2.2,10.4,5.8,14.1c5.7,3.5,12.3,5.6,19,5.9h4.3c6.1-0.3,12.1-2,17.7-5.3L596.4,182z"/>
		<path class="st32" d="M534.2,162.1L534.2,162.1c2,3.5,4.6,6.7,7.4,9.3h2.7c-1.5-2.8-2.4-6-2.4-9.4v-1c0-11,9-20,20-20l79.8,0
			c2.2-9.5,0.9-19.8-4.3-28.9l0,0c-11-19.1-35.6-25.6-54.6-14.6L532,126.8C527.4,137.9,527.8,151,534.2,162.1z"/>
		<path class="st32" d="M541.7,171.4c1.9,1.8,4,3.3,6.2,4.7c-1.4-1.4-2.5-2.9-3.5-4.7H541.7z"/>
		<path class="st31" d="M571.2,182h-4.3C568.3,182.1,569.7,182.1,571.2,182z"/>
		<path class="st32" d="M614.8,171.4l8-4.6c7.9-4.6,13.7-11.5,16.9-19.4l-41.6,24H614.8z"/>
		<path class="st32" d="M616,171.4h-1.2L596.4,182l37.2,0C630.3,175.7,623.6,171.4,616,171.4z"/>
		<path class="st32" d="M588.9,176.7c-5.6,3.2-11.7,4.9-17.7,5.3l25.3,0l18.4-10.6h-16.7L588.9,176.7z"/>
		<path class="st31" d="M562,182h4.8c-6.7-0.4-13.3-2.4-19-5.9C551.5,179.7,556.5,182,562,182z"/>
		<path class="st32" d="M562,141c-11,0-20,9-20,20v1c0,3.4,0.9,6.6,2.4,9.4l53.8,0l41.6-24c0.9-2.1,1.5-4.2,2-6.4L562,141z"/>
		<path class="st32" d="M598.1,171.4l-53.8,0c0.9,1.7,2.1,3.3,3.5,4.7c5.7,3.5,12.3,5.6,19,5.9h4.3c6.1-0.3,12.1-2,17.7-5.3
			L598.1,171.4z"/>
	</g>
	<g>
		<path class="st26" d="M745,115L745,115c-4.3-7.4-1.7-16.9,5.7-21.2l17.8-10.3c-0.5,0.2-1.1,0.5-1.6,0.8l-37.2,21.5
			c-7.4,4.3-9.9,13.8-5.7,21.2h0c4.3,7.4,13.8,9.9,21.2,5.7l19.4-11.2C757.4,124.5,748.9,121.9,745,115z"/>
		<path class="st33" d="M788,90L788,90c-4-6.9-12.5-9.5-19.6-6.5l-17.8,10.3c-7.4,4.3-9.9,13.8-5.7,21.2h0c4,6.9,12.5,9.5,19.6,6.5
			l17.8-10.3C789.8,106.9,792.3,97.4,788,90z"/>
	</g>
	<g>
		<path class="st34" d="M387.1,393.2l24.8-14.3c2.4-1.4,5-2.6,7.5-3.5c1.2-2.6,2.1-5.4,2.7-8.2L387.7,387
			C387.7,389.1,387.5,391.2,387.1,393.2z"/>
		<path class="st34" d="M198.7,396.7l26.1-15.1c1.7-1,3.1-2.1,4.4-3.4l-30.1,17.4C199,396,198.9,396.3,198.7,396.7z"/>
		<path class="st34" d="M198.7,396.7c-0.9,2.8-2.4,5.3-4.5,7.5l79.4-45.8c6.3-3.7,13.6-4.2,20.1-2.1l26.2-15.1
			c3.1-1.8,7.1-0.7,8.9,2.4c1.8,3.1,0.7,7.1-2.4,8.9l-20.8,12c0.8,1,1.5,2,2.1,3.1v0c0.7,1.2,1.2,2.4,1.7,3.6l25.8-14.9
			c16.7-9.6,38.2-3.9,47.8,12.8l0,0c3.3,5.7,4.8,11.9,4.6,18l34.3-19.8c1.6-8,0.4-16.6-4-24.2l0,0c-9.6-16.7-31.1-22.4-47.8-12.8
			l-25.8,14.9c-0.5-1.2-1-2.4-1.7-3.6v0c-0.6-1.1-1.4-2.2-2.1-3.1l20.8-12c3.1-1.8,4.2-5.8,2.4-8.9c-1.8-3.1-5.8-4.2-8.9-2.4
			l-26.2,15.1c-6.5-2.1-13.8-1.5-20.1,2.1l-79.4,45.8c-1.3,1.3-2.7,2.5-4.4,3.4L198.7,396.7z"/>
		<path class="st23" d="M194.2,404.2L128.7,442h1.6l59.5-34.4C191.5,406.7,192.9,405.5,194.2,404.2z"/>
		<path class="st34" d="M197.2,380.3L197.2,380.3c2.8,4.8,3.3,10.3,1.9,15.3l30.1-17.4c6-6.3,7.5-16,2.9-23.9v0
			c-5.5-9.5-17.8-12.8-27.3-7.3L40.3,442h10l119.5-69C179.4,367.5,191.7,370.8,197.2,380.3z"/>
		<path class="st34" d="M547.8,348.5c-2.3-4-7.6-5.4-11.6-3.1l-31,17.9c-1.7-2-3.5-3.8-5.4-5.5l14.6-8.4c3.1-1.8,4.2-5.8,2.4-8.9
			c-1.8-3.1-5.8-4.2-8.9-2.4l-20.8,12c-12.7-5.1-27.5-4.6-40.2,2.8l-24.8,14.3c-0.6,2.8-1.5,5.6-2.7,8.2c10.8-3.8,22.4-3.4,32.7,0.7
			l20.8-12c3.1-1.8,7.1-0.7,8.9,2.4c1.8,3.1,0.7,7.1-2.4,8.9l-14.6,8.4c1.9,1.6,3.7,3.5,5.4,5.5l31-17.9c4-2.3,9.3-0.9,11.6,3.1
			c0.6,1.1,1,2.2,1.1,3.4l30.8-17.8C548.7,357.8,550.1,352.5,547.8,348.5z"/>
		<path class="st34" d="M509.7,386.1l-31.2,18c4.3,12.7,2.6,26.6-4,37.9h2.1h33.6c-0.8-2.4-1.8-4.7-3.1-7l0,0
			c-1.8-3.1-4-5.8-6.4-8.1c13.2-11.9,18.3-30.5,13.2-47.5C513.6,382.1,512.2,384.7,509.7,386.1z"/>
		<path class="st23" d="M302.6,442h14l66.7-38.5c1.8-3.2,3-6.7,3.7-10.3L302.6,442z"/>
		<path class="st23" d="M326.7,442l43.6-25.2c5.7-3.3,10.1-8,13.1-13.3L316.6,442H326.7z"/>
		<path class="st23" d="M387.7,387l-95.2,55h10l84.5-48.8C387.5,391.2,387.7,389.1,387.7,387z"/>
		<path class="st23" d="M218.7,442h73.9l95.2-55c0.1-6.1-1.4-12.4-4.6-18l0,0c-9.6-16.7-31.1-22.4-47.8-12.8l-25.8,14.9
			c-0.5-1.2-1-2.4-1.7-3.6v0c-0.6-1.1-1.4-2.2-2.1-3.1l20.8-12c3.1-1.8,4.2-5.8,2.4-8.9c-1.8-3.1-5.8-4.2-8.9-2.4l-26.2,15.1
			c-6.5-2.1-13.8-1.5-20.1,2.1l-79.4,45.8c-1.3,1.3-2.7,2.5-4.4,3.4L130.3,442h46.3H218.7z"/>
		<path class="st23" d="M118.7,442h1.6l78.5-45.3c0.1-0.4,0.2-0.7,0.3-1.1L118.7,442z"/>
		<path class="st23" d="M198.7,396.7L120.3,442h8.4l65.5-37.8C196.3,402,197.8,399.5,198.7,396.7z"/>
		<path class="st23" d="M199.1,395.6c1.4-5,0.8-10.5-1.9-15.3v0c-5.5-9.5-17.8-12.8-27.3-7.3L50.3,442h68.4L199.1,395.6z"/>
		<path class="st23" d="M513.9,379.4c0-0.5,0-1,0-1.5l-0.4,0.2C513.6,378.6,513.7,379,513.9,379.4z"/>
		<path class="st23" d="M387.1,393.2c-0.7,3.6-2,7.1-3.7,10.3l21.9-12.7c6.4-3.7,11.2-9.1,14.1-15.4c-2.6,0.9-5.1,2.1-7.5,3.5
			L387.1,393.2z"/>
		<path class="st23" d="M501.2,371.4l-31,17.9c-1.7-2-3.5-3.8-5.4-5.5l14.6-8.4c3.1-1.8,4.2-5.8,2.4-8.9c-1.8-3.1-5.8-4.2-8.9-2.4
			l-20.8,12c-10.2-4.1-21.9-4.6-32.7-0.7c-2.9,6.2-7.7,11.7-14.1,15.4l-21.9,12.7c-3,5.4-7.4,10.1-13.1,13.3L326.7,442H425h49.5
			c6.6-11.3,8.2-25.1,4-37.9l31.2-18c2.5-1.4,4-4,4.2-6.7c-0.1-0.4-0.3-0.9-0.4-1.3l0.4-0.2c-0.1-1.2-0.5-2.3-1.1-3.4
			C510.4,370.5,505.2,369.1,501.2,371.4z"/>
	</g>
	<g>
		<g>
			<path class="st35" d="M402.5,676.8L402.5,676.8c-20.8-36-67.3-48.5-103.3-27.7l-64.6,37.3c-1,8.8-4.5,17.1-10.3,24
				c23.5,2.3,45.6,15.5,58.2,37.4l0,0c4.1,7.1,6.9,14.6,8.5,22.2h97.5C413.7,746.5,420.4,707.8,402.5,676.8z"/>
		</g>
		<g>
			<path class="st36" d="M282.5,747.8c-12.6-21.9-34.7-35-58.2-37.4c-3.3,3.9-7.3,7.3-11.9,10L126.6,770H291
				C289.4,762.4,286.6,754.9,282.5,747.8L282.5,747.8z"/>
		</g>
	</g>
	<g>
		<g>
			<path class="st37" d="M171.9,589L171.9,589c9.2,15.9,9.4,34.7,2.3,50.3c7.5-2.8,15.5-3.5,23.2-2.2c22.6-16.3,29.7-47.6,15.5-72.1
				l0,0c-15.1-26.2-48.9-35.3-75.1-20.1L0,624.4v0.3l96.7-55.8C122.9,553.8,156.7,562.8,171.9,589z"/>
		</g>
		<path class="st37" d="M228.9,659L228.9,659c-7-12-18.7-19.7-31.5-21.8c-1.5,1.1-3,2.1-4.6,3l-36.3,21c0,0,0,0,0,0
			c12.8,2.2,24.6,9.8,31.5,21.8l0,0c4.9,8.5,6.7,18,5.7,27.1l41-23.7C235.6,677.2,233.9,667.6,228.9,659z"/>
		<path class="st37" d="M174.2,639.3c-3.9,8.5-9.9,16.1-17.8,21.8l36.3-21c1.6-0.9,3.1-1.9,4.6-3
			C189.7,635.9,181.7,636.5,174.2,639.3z"/>
		<path class="st37" d="M193.6,710.4c-1.4,12.2-7.7,23.7-18,31.3l36.9-21.3c12.8-7.4,20.6-20.3,22.2-34l-41,23.7
			C193.6,710.2,193.6,710.3,193.6,710.4z"/>
		<g>
			<path class="st38" d="M167.4,642.5c2.2-1.3,4.5-2.3,6.8-3.2c7.1-15.6,6.9-34.4-2.3-50.3l0,0c-15.1-26.2-48.9-35.3-75.1-20.1
				L0,624.7v114.4L167.4,642.5z"/>
		</g>
		<g>
			<path class="st38" d="M156.4,661.2C156.4,661.2,156.4,661.1,156.4,661.2L156.4,661.2C156.3,661.2,156.3,661.2,156.4,661.2z"/>
		</g>
		<g>
			<path class="st38" d="M174.2,639.3c-2.3,0.9-4.6,1.9-6.8,3.2L0,739.2v0.3l126.4-73c9.4-5.4,20-7,29.9-5.4l0.1,0
				C164.3,655.4,170.3,647.8,174.2,639.3z"/>
		</g>
		<path class="st38" d="M0,751.8V770h89.8l103.8-59.9c1-9.1-0.8-18.6-5.7-27.1l0,0c-7-12-18.7-19.7-31.5-21.8c-1.5,1.1-3,2.1-4.6,3
			L0,751.8z"/>
		<path class="st38" d="M90.4,770l103.2-59.6c0-0.1,0-0.2,0-0.3L89.8,770H90.4z"/>
		<path class="st38" d="M0,751.4v0.3l151.7-87.6c1.6-0.9,3.1-1.9,4.6-3c0,0,0,0,0,0L0,751.4z"/>
		<path class="st38" d="M126.4,666.5L0,739.5v11.9l156.3-90.3C146.4,659.5,135.8,661.1,126.4,666.5z"/>
		<path class="st38" d="M193.6,710.4L90.4,770h36.2l48.9-28.3C185.9,734.1,192.2,722.6,193.6,710.4z"/>
	</g>
	<g>
		<path class="st39" d="M460.1,675.3c0.7-4.3,2.7-8.4,6-11.5c-1.4-1.3-2.6-2.8-3.6-4.5l0,0c-2.3-4.1-3.1-8.6-2.4-13l-13.3,7.7
			c-9.5,5.5-12.8,17.8-7.3,27.3l0,0c1,1.7,2.2,3.2,3.6,4.5c1.1-1.1,2.4-2,3.7-2.8L460.1,675.3z"/>
		<path class="st39" d="M463.7,690.1c-7.1,2.6-15.1,0.9-20.6-4.3c-6.5,6.2-8.3,16.4-3.6,24.5l0,0c5.5,9.5,17.8,12.8,27.3,7.3l52-30
			c5.5-3.2,8.9-8.5,9.7-14.3l-38.7,22.3C481,700.8,469.6,698.2,463.7,690.1z"/>
		<path class="st39" d="M463.7,690.1c-0.4-0.6-0.8-1.2-1.2-1.8l0,0c-2.3-4.1-3.1-8.6-2.4-13l-13.3,7.7c-1.4,0.8-2.6,1.8-3.7,2.8
			C448.6,691,456.6,692.7,463.7,690.1z"/>
		<path class="st40" d="M462.5,659.3L462.5,659.3c1,1.7,2.2,3.2,3.6,4.5c1.1-1.1,2.4-2,3.7-2.8l52-30c1-0.6,2.1-1.1,3.2-1.5
			c-5.9-8.1-17.3-10.7-26.2-5.5l-38.7,22.3C459.5,650.7,460.2,655.2,462.5,659.3z"/>
		<path class="st40" d="M522.6,655.8c3.3-3.1,5.3-7.2,6-11.5l-12.7,7.3C518.3,652.5,520.6,654,522.6,655.8z"/>
		<path class="st40" d="M466.1,663.8c-3.3,3.1-5.3,7.2-6,11.5l12.7-7.3C470.4,667.1,468.1,665.7,466.1,663.8z"/>
		<path class="st40" d="M526.2,660.3c-1-1.7-2.2-3.2-3.6-4.5c-1.1,1.1-2.4,2-3.7,2.8l-52,30c-1,0.6-2.1,1.1-3.2,1.5
			c5.9,8.1,17.3,10.7,26.2,5.5l38.7-22.3C529.2,669,528.5,664.4,526.2,660.3z"/>
		<path class="st40" d="M515.9,651.6l-26,15c-5.4,3.1-11.6,3.4-17,1.4l-12.7,7.3c-0.7,4.3,0.1,8.9,2.4,13l0,0
			c0.4,0.6,0.7,1.2,1.2,1.8c1.1-0.4,2.1-0.9,3.2-1.5l52-30c1.4-0.8,2.6-1.8,3.7-2.8C520.6,654,518.3,652.5,515.9,651.6z"/>
		<path class="st40" d="M526.2,631.3c-0.4-0.6-0.7-1.2-1.2-1.8c-1.1,0.4-2.1,0.9-3.2,1.5l-52,30c-1.4,0.8-2.6,1.8-3.7,2.8
			c2,1.8,4.2,3.3,6.7,4.2l26-15c5.4-3.1,11.6-3.4,17-1.4l12.7-7.3C529.2,640,528.5,635.4,526.2,631.3z"/>
		<path class="st40" d="M489.9,666.6l26-15c-5.4-2-11.7-1.7-17,1.4l-26,15C478.2,670,484.5,669.7,489.9,666.6z"/>
	</g>
	<g>
		<path class="st32" d="M1013.7,161.1l-28.5,16.4c4.6,3.4,8.7,7.8,11.8,13l50.9-29.4c-0.1-0.2-0.2-0.5-0.4-0.7v0
			c-3.2-5.6-7.5-10.2-12.4-13.9l-17.9,10.3C1016.6,158.6,1015.4,160.1,1013.7,161.1z"/>
		<path class="st32" d="M1027.9,186.3l-26.1,15.1c0.8,2.9,1.4,5.7,1.6,8.7l34.1-19.7c5-2.9,10.6-3.8,15.9-3.1
			c0.5-5.6,0-11.3-1.7-16.9l-21.5,12.4C1030.1,184.2,1029.3,185.6,1027.9,186.3z"/>
		<path class="st32" d="M952.1,163c1,1.8,1.9,3.7,2.6,5.5c3.7-0.2,7.4,0,11,0.6l7-4c0.7-1.7,1.9-3.2,3.6-4.2l39.4-22.7
			c-10.3-1.8-21.3-0.2-31,5.4l-32.9,19C951.9,162.7,952,162.9,952.1,163L952.1,163z"/>
		<path class="st32" d="M900.8,192l51-29.4c-9.7-16.3-31-21.9-47.5-12.4l-112.6,65c-3.4,2-6.3,4.4-8.8,7.2l71.3-41.2
			C870.3,172,890.7,176.9,900.8,192z"/>
		<path class="st32" d="M901.8,193.6l32.9-19c6.3-3.6,13.1-5.6,19.9-6c-0.7-1.9-1.5-3.7-2.6-5.5l0,0c-0.1-0.1-0.2-0.3-0.3-0.4
			l-51,29.4C901.2,192.5,901.5,193,901.8,193.6z"/>
		<path class="st32" d="M1043.8,212.6c0.4-0.7,1-1.3,1.8-1.8l24.3-14c-4.1-5.3-10-8.6-16.4-9.5c-0.8,9.2-4.3,18.1-10.3,25.3
			C1043.5,212.6,1043.6,212.6,1043.8,212.6z"/>
		<path class="st32" d="M1073.4,221.1c1.9-4.8,2.2-10.2,0.9-15.3l-15.1,8.7C1064.2,215.9,1069,218.1,1073.4,221.1z"/>
		<path class="st32" d="M1037.6,190.3l-34.1,19.7c0.3,2.7,0.3,5.5,0,8.2c3.9,0.6,7.7,2,11,4.3l5.9-3.4c7.2-4.2,15-6.3,22.8-6.6
			c5.9-7.2,9.5-16.1,10.3-25.3C1048.2,186.5,1042.6,187.5,1037.6,190.3z"/>
		<path class="st32" d="M1062.6,233.7l-19.7,11.3h49.3c-1-2.6-2.1-5.1-3.5-7.5l0,0c-3.9-6.8-9.2-12.3-15.4-16.4
			C1071.4,226.2,1067.7,230.7,1062.6,233.7z"/>
		<path class="st32" d="M1050.6,219.5c-2.4,1.4-5.5,0.6-6.8-1.8c-0.9-1.6-0.8-3.5,0.1-5c-0.2,0-0.4,0-0.6,0
			c-1.9,2.3-4.1,4.5-6.4,6.4c1.6,0.1,3.1,1,3.9,2.5c1.4,2.4,0.6,5.5-1.8,6.8l-14.6,8.4c0.7,2.7,0.9,5.5,0.7,8.2h18l19.7-11.3
			c5.1-2.9,8.8-7.5,10.8-12.6c-4.4-2.9-9.2-5.1-14.2-6.6L1050.6,219.5z"/>
		<path class="st32" d="M1019.9,227.8l14-8.1c0.9-0.5,1.9-0.7,2.9-0.6c2.4-1.9,4.5-4.1,6.4-6.4c-7.8,0.3-15.6,2.5-22.8,6.6l-5.9,3.4
			C1016.5,224,1018.4,225.8,1019.9,227.8z"/>
		<path class="st32" d="M1063.7,130.1c4-2.3,5.4-7.6,3.1-11.6c-2.3-4-7.6-5.4-11.6-3.1l-39.4,22.8c7,1.2,13.7,4.1,19.5,8.4
			L1063.7,130.1z"/>
		<path class="st32" d="M972.7,165.1l32.4-18.7c4-2.3,9.3-0.9,11.6,3.1c1.3,2.3,1.4,5,0.5,7.4l17.9-10.3c-5.8-4.3-12.5-7.1-19.5-8.4
			l-39.4,22.7C974.6,161.9,973.4,163.4,972.7,165.1z"/>
		<path class="st32" d="M1077.9,155.3c2.4-1.4,3.2-4.4,1.8-6.8c-1.4-2.4-4.4-3.2-6.8-1.8l-25,14.4c1.7,3,3,6.1,3.9,9.3L1077.9,155.3
			z"/>
		<path class="st32" d="M997.6,191.4L997.6,191.4c0.1,0.2,0.3,0.5,0.4,0.7l25-14.4c2.4-1.4,5.5-0.6,6.8,1.8c0.6,1,0.8,2.2,0.6,3.3
			l21.5-12.4c-0.9-3.2-2.2-6.3-3.9-9.3L997,190.5C997.2,190.8,997.4,191.1,997.6,191.4z"/>
		<path class="st32" d="M1071.8,199.5c1.2,2,2,4.1,2.6,6.3l14.6-8.4c2.4-1.4,3.2-4.4,1.8-6.8c-1.4-2.4-4.4-3.2-6.8-1.8l-14,8.1
			C1070.6,197.6,1071.2,198.5,1071.8,199.5L1071.8,199.5z"/>
		<path class="st32" d="M1043.8,212.6c5.2-0.2,10.4,0.5,15.4,1.9l15.1-8.7c-0.5-2.2-1.4-4.3-2.6-6.3v0c-0.6-1-1.2-1.9-1.8-2.7
			l-24.3,14C1044.8,211.2,1044.3,211.9,1043.8,212.6z"/>
		<path class="st32" d="M1043.8,217.6c1.4,2.4,4.4,3.2,6.8,1.8l8.6-5c-5-1.4-10.1-2.1-15.4-1.9
			C1042.9,214.1,1042.9,216,1043.8,217.6z"/>
		<path class="st31" d="M1001.8,201.4l-58.8,33.9c-2.4,1.4-5.5,0.6-6.8-1.8c-1.4-2.4-0.6-5.5,1.8-6.8l47.6-27.5
			c0.2-1.4,1.1-2.7,2.4-3.5l9-5.2c-3.2-5.2-7.2-9.5-11.8-13l-32.1,18.5c-3,6-7.6,11.2-13.8,14.7L898,234.6c-2.4,2.8-5.4,5.2-8.7,7.2
			l-5.5,3.2h59.2l60.5-35C1003.2,207.1,1002.7,204.2,1001.8,201.4z"/>
		<path class="st31" d="M965.7,169.2c-3.6-0.6-7.3-0.9-11-0.6c0.7,2,1.3,4,1.6,6.1L965.7,169.2z"/>
		<path class="st31" d="M902.1,194c7.7,13.3,5.6,29.7-4.1,40.6l41.3-23.8c6.2-3.6,10.8-8.8,13.8-14.7l-18.2,10.5
			c-4,2.3-9.3,0.9-11.6-3.1c-2.3-4-0.9-9.3,3.1-11.6l29.9-17.3c-0.3-2-0.9-4.1-1.6-6.1c-6.8,0.4-13.6,2.4-19.9,6l-32.9,19
			C901.9,193.7,902,193.9,902.1,194L902.1,194z"/>
		<path class="st31" d="M1003.5,218.3c0.2-2.7,0.2-5.5,0-8.2l-60.5,35h3.7l41-23.7C992.6,218.5,998.2,217.5,1003.5,218.3z"/>
		<path class="st31" d="M985.7,199.2l12.3-7.1c-0.1-0.2-0.2-0.5-0.4-0.7v0c-0.2-0.3-0.4-0.6-0.6-0.9l-9,5.2
			C986.7,196.4,985.9,197.8,985.7,199.2z"/>
		<path class="st31" d="M809.1,245l91.8-53c-10.1-15.1-30.6-20-46.6-10.8L783,222.4c-5.5,6.3-8.6,14.4-8.7,22.6H809.1z"/>
		<path class="st31" d="M900.8,192l-91.8,53h3.7l89.1-51.4C901.5,193,901.2,192.5,900.8,192z"/>
		<path class="st31" d="M898,234.6l-18,10.4h3.7l5.5-3.2C892.7,239.9,895.6,237.4,898,234.6z"/>
		<path class="st31" d="M902.1,194L902.1,194c-0.1-0.1-0.2-0.3-0.3-0.4L812.7,245h67.3l18-10.4C907.7,223.7,909.8,207.3,902.1,194z"
			/>
		<path class="st31" d="M1014.5,222.6c-3.3-2.3-7.1-3.8-11-4.3c-0.4,4.2-1.3,8.4-2.8,12.3L1014.5,222.6z"/>
		<path class="st31" d="M1024.3,236.8l-14.2,8.2h14.9C1025.2,242.3,1025,239.5,1024.3,236.8z"/>
		<path class="st31" d="M993.3,243.6c0.2,0,0.4,0,0.6,0c0.4-0.7,1-1.3,1.8-1.8l24.3-14c-1.6-2-3.4-3.7-5.4-5.1l-13.8,8
			C999,235.3,996.5,239.7,993.3,243.6z"/>
		<path class="st31" d="M1003.5,218.3c-5.3-0.7-10.9,0.2-15.9,3.1l-41,23.7h29.1l25-14.4C1002.2,226.6,1003.2,222.5,1003.5,218.3z"
			/>
		<path class="st31" d="M1000.7,230.6l-25,14.4h7.7c3.2-0.8,6.5-1.3,9.8-1.4C996.5,239.7,999,235.3,1000.7,230.6z"/>
		<path class="st31" d="M993.1,245h0.2c0,0,0-0.1,0-0.1L993.1,245z"/>
		<path class="st31" d="M993.8,243.6c-0.2,0-0.4,0-0.6,0c-0.4,0.5-0.8,0.9-1.2,1.4h1l0.2-0.1C993.4,244.4,993.6,244,993.8,243.6z"/>
		<path class="st31" d="M983.4,245h8.6c0.4-0.5,0.8-0.9,1.2-1.4C990,243.7,986.7,244.2,983.4,245z"/>
		<path class="st32" d="M983.4,176.3c0.6,0.4,1.2,0.8,1.8,1.3l28.5-16.4c1.7-1,3-2.5,3.6-4.2l-32.4,18.7
			C984.4,175.9,983.9,176.1,983.4,176.3z"/>
		<path class="st32" d="M972.7,165.1l-7,4c2.3,0.4,4.6,1,6.8,1.8C971.9,169,972,166.9,972.7,165.1z"/>
		<path class="st32" d="M972.5,170.9c3.8,1.3,7.5,3.1,10.9,5.3c0.5-0.2,1-0.4,1.4-0.7l32.4-18.7c0.9-2.3,0.8-5.1-0.5-7.4
			c-2.3-4-7.6-5.4-11.6-3.1l-32.4,18.7C972,166.9,971.9,169,972.5,170.9z"/>
		<path class="st31" d="M953.1,196.1l32.1-18.5c-0.6-0.4-1.2-0.9-1.8-1.3c-3.8,1.3-8.1-0.2-10.2-3.8c-0.3-0.5-0.5-1-0.7-1.6
			c-2.2-0.8-4.5-1.3-6.8-1.8l-9.4,5.4C957.5,182,956.3,189.5,953.1,196.1z"/>
		<path class="st31" d="M956.3,174.6l-29.9,17.3c-4,2.3-5.4,7.6-3.1,11.6c2.3,4,7.6,5.4,11.6,3.1l18.2-10.5
			C956.3,189.5,957.5,182,956.3,174.6z"/>
		<path class="st31" d="M973.2,172.5c2.1,3.6,6.4,5.1,10.2,3.8c-3.4-2.3-7-4.1-10.9-5.3C972.7,171.5,972.9,172,973.2,172.5z"/>
		<path class="st32" d="M1001.8,201.4l26.1-15.1c1.3-0.8,2.2-2.1,2.4-3.5l-29.1,16.8C1001.5,200.2,1001.7,200.8,1001.8,201.4z"/>
		<path class="st32" d="M1030.3,182.8c0.2-1.1,0-2.3-0.6-3.3c-1.4-2.4-4.4-3.2-6.8-1.8l-25,14.4c1.4,2.4,2.5,4.9,3.3,7.5
			L1030.3,182.8z"/>
		<path class="st31" d="M993.1,204.3c-2.4,1.4-5.5,0.6-6.8-1.8c-0.6-1-0.8-2.2-0.6-3.3l-47.6,27.5c-2.4,1.4-3.2,4.4-1.8,6.8
			c1.4,2.4,4.4,3.2,6.8,1.8l58.8-33.9c-0.2-0.6-0.4-1.2-0.6-1.8L993.1,204.3z"/>
		<path class="st31" d="M986.2,202.5c1.4,2.4,4.4,3.2,6.8,1.8l8.2-4.7c-0.9-2.6-2-5.1-3.3-7.5l-12.3,7.1
			C985.5,200.3,985.6,201.5,986.2,202.5z"/>
		<path class="st32" d="M1020.8,229c0.3,0.5,0.7,1,1,1.5v0c1.2,2,2,4.1,2.6,6.3l14.6-8.4c2.4-1.4,3.2-4.4,1.8-6.8
			c-0.9-1.5-2.4-2.3-3.9-2.5c-1.9,1.5-3.9,3-6.1,4.2L1020.8,229z"/>
		<path class="st32" d="M1033.9,219.7l-14,8.1c0.3,0.4,0.6,0.8,0.9,1.2l9.9-5.7c2.2-1.3,4.2-2.7,6.1-4.2
			C1035.8,218.9,1034.8,219.1,1033.9,219.7z"/>
		<path class="st31" d="M1009.2,245.5l0.9-0.5h-2.8C1007.9,245.2,1008.6,245.3,1009.2,245.5z"/>
		<path class="st31" d="M1021.8,230.5L1021.8,230.5c-0.3-0.5-0.6-1-1-1.5l-25.2,14.6c4,0,7.9,0.5,11.7,1.4h2.8l14.2-8.2
			C1023.8,234.6,1022.9,232.5,1021.8,230.5z"/>
		<path class="st31" d="M995.6,241.8c-0.8,0.4-1.4,1.1-1.8,1.8c0.6,0,1.1,0,1.7,0l25.2-14.6c-0.3-0.4-0.6-0.8-0.9-1.2L995.6,241.8z"
			/>
		<path class="st31" d="M995.6,243.6l-2.3,1.3c0,0,0,0.1,0,0.1h14C1003.5,244.1,999.5,243.6,995.6,243.6z"/>
		<path class="st31" d="M993.8,243.6c-0.2,0.4-0.4,0.8-0.6,1.3l2.3-1.3C995,243.6,994.4,243.6,993.8,243.6z"/>
	</g>
	<g>
		<path class="st20" d="M492.8,559.5c-2.3-4-7.6-5.4-11.6-3.1l-78.8,45.5c-0.7,0.4-1.2,0.8-1.7,1.3l65.5-37.8
			c4-2.3,9.3-0.9,11.6,3.1c2,3.4,1.3,7.6-1.4,10.3l13.3-7.7C493.7,568.8,495.1,563.5,492.8,559.5z"/>
		<path class="st41" d="M477.8,568.5c-2.3-4-7.6-5.4-11.6-3.1l-65.5,37.8c-2.7,2.7-3.3,6.9-1.4,10.3c2.3,4,7.6,5.4,11.6,3.1
			l65.5-37.8C479,576.1,479.7,571.9,477.8,568.5z"/>
	</g>
	<g>
		<path class="st42" d="M665.2,532.2l-4.3,2.5c-8.2,4.7-18.5,2.9-24.7-3.8l-36.9,21.3c0.4,2.1,1.1,4.2,2.3,6.2l0,0
			c5.5,9.5,17.8,12.8,27.3,7.3l49.6-28.6c5-2.9,8.3-7.7,9.5-13l-16.3,9.4C669.4,534.7,666.7,534.1,665.2,532.2z"/>
		<path class="st42" d="M601.6,538.3l-15.1,8.7c-7.1,4.1-16.4,1.7-20.5-5.5l0,0c-0.7-1.2-1.2-2.6-1.6-3.9l-25,14.4
			c-7.1,4.1-9.6,13.3-5.5,20.5l0,0c4.1,7.1,13.3,9.6,20.5,5.5l44.7-25.8C598.3,547.4,599.2,542.4,601.6,538.3z"/>
		<path class="st42" d="M633.5,527.3L633.5,527.3c-1.1-2-1.9-4-2.3-6.2l-29.7,17.1c-2.4,4.2-3.3,9.1-2.3,13.9l36.9-21.3
			C635.2,529.8,634.3,528.6,633.5,527.3z"/>
		<path class="st42" d="M688.4,518.7c0.1,1.8-0.1,3.6-0.5,5.3l22-12.7c2.2-1.3,3.1-4,2.1-6.3c-0.5,0.3-1,0.7-1.5,1L688.4,518.7z"/>
		<path class="st42" d="M688.4,518.7l-23.3,13.4c1.5,2,4.3,2.6,6.4,1.3L688,524C688.3,522.3,688.5,520.5,688.4,518.7z"/>
		<path class="st43" d="M651.8,522.6c-1.4-2.4-0.6-5.5,1.8-6.8l24-13.9c-2.8-1.5-6-2.2-9.2-2.2l-18.2,10.5c1.6,6.3-1.1,13.2-7,16.6
			l-7,4c6.2,6.7,16.5,8.5,24.7,3.8l4.3-2.5c-0.1-0.2-0.3-0.3-0.4-0.5c-1.4-2.4-0.6-5.5,1.8-6.8l20.7-11.9c-0.4-1.1-0.9-2.2-1.5-3.2
			c-0.1-0.2-0.3-0.4-0.4-0.7l-26.8,15.5C656.2,525.8,653.2,525,651.8,522.6z"/>
		<path class="st43" d="M650.2,510.2l-18.9,10.9c0.4,2.1,1.1,4.2,2.3,6.2l0,0c0.8,1.3,1.6,2.5,2.6,3.5l7-4
			C649.1,523.4,651.8,516.5,650.2,510.2z"/>
		<path class="st43" d="M704.9,502.7l-17.7,10.2c0.7,1.9,1.1,3.9,1.2,5.9l22.1-12.7c0.5-0.3,1-0.6,1.5-1c-0.1-0.2-0.1-0.3-0.2-0.5
			C710.4,502.1,707.3,501.3,704.9,502.7z"/>
		<path class="st43" d="M664.8,531.6c0.1,0.2,0.2,0.4,0.4,0.5l23.3-13.4c-0.1-2-0.5-3.9-1.2-5.9l-20.7,11.9
			C664.2,526.2,663.4,529.2,664.8,531.6z"/>
		<path class="st43" d="M691.9,493.7l-14.3,8.3c3.1,1.6,5.8,4,7.7,7.1l11.6-6.7c0.3-0.2,0.5-0.4,0.8-0.6c-0.4-0.3-0.7-0.7-0.9-1.1
			c-1.2-2.1-0.7-4.7,1-6.3C696.3,492.9,693.9,492.5,691.9,493.7z"/>
		<path class="st43" d="M677.6,501.9l-24,13.9c-2.4,1.4-3.2,4.4-1.8,6.8c1.4,2.4,4.4,3.2,6.8,1.8l26.8-15.5
			C683.4,505.9,680.7,503.5,677.6,501.9z"/>
		<path class="st43" d="M566,541.5c4.1,7.1,13.3,9.6,20.5,5.5l15.1-8.7c1.7-2.9,4.1-5.5,7.3-7.3l22.1-12.7
			c-0.3-7.2,3.3-14.4,9.9-18.3l0.2-0.1c-4.1-1.6-8.8-1.4-12.9,1l-63.7,36.8C564.8,538.9,565.3,540.2,566,541.5L566,541.5z"/>
		<path class="st43" d="M608.9,531c-3.1,1.8-5.6,4.4-7.3,7.3l29.7-17.1c-0.2-1-0.3-1.9-0.3-2.9L608.9,531z"/>
		<path class="st43" d="M668.4,499.7c-3.4,0-6.8,0.8-9.9,2.6l-9.2,5.3c0.4,0.8,0.7,1.7,0.9,2.6L668.4,499.7z"/>
		<path class="st43" d="M648.7,506.3L648.7,506.3c-1.8-3.1-4.5-5.3-7.6-6.5l-0.2,0.1c-6.7,3.9-10.3,11-9.9,18.3l18.4-10.6
			C649.1,507.2,648.9,506.8,648.7,506.3z"/>
		<path class="st43" d="M649.3,507.6l-18.4,10.6c0,1,0.2,1.9,0.3,2.9l18.9-10.9C650,509.3,649.7,508.5,649.3,507.6z"/>
		<path class="st43" d="M696.8,500.6c0.3,0.4,0.6,0.8,0.9,1.1c1.8-1.5,2.3-4.2,1-6.3c-0.3-0.4-0.6-0.8-0.9-1.1
			C696.1,495.9,695.6,498.5,696.8,500.6z"/>
	</g>
	<g>
		<path class="st23" d="M753.8,408.6c-1.4-2.4-0.6-5.5,1.8-6.8l16.6-9.6c0-0.1-0.1-0.2-0.1-0.2h0c0,0,0,0,0,0l-28.9,16.7
			c-7.4,4.3-16.9,1.7-21.2-5.7l-8.3,4.8c-7.4,4.3-9.9,13.8-5.7,21.2h0c4.3,7.4,13.8,9.9,21.2,5.7l37.2-21.5c4-2.3,6.5-6.1,7.4-10.3
			l-13.2,7.6C758.2,411.8,755.2,411,753.8,408.6z"/>
		<path class="st23" d="M800.8,381.5c-1.4-2.4-4.4-3.2-6.8-1.8l-21.8,12.6c1.9,3.3,2.3,7.1,1.6,10.6l25.2-14.5
			C801.3,387,802.1,383.9,800.8,381.5z"/>
		<path class="st23" d="M772.2,392.2l-16.6,9.6c-2.4,1.4-3.2,4.4-1.8,6.8c1.4,2.4,4.4,3.2,6.8,1.8l13.2-7.6
			C774.5,399.4,774,395.6,772.2,392.2z"/>
		<path class="st34" d="M743.1,408.7L772,392c-4.3-7.4-13.8-9.9-21.2-5.7L722,403C726.2,410.4,735.8,412.9,743.1,408.7z"/>
	</g>
	<g>
		<path class="st44" d="M986.8,540.5c9.1,2.1,17.3,7.8,22.3,16.5v0c1.3,2.2,2.3,4.5,3,6.8l12.7-7.3c6.9-4,14.6-5.7,22.1-5.3
			c1.9-8.2,0.8-17.2-3.7-25l-12.6,7.3c-2.4,1.4-5.5,0.6-6.8-1.8c-1.4-2.4-0.6-5.5,1.8-6.8l11.4-6.6c-2.2-2.1-4.7-3.9-7.3-5.4
			l-27,15.6c-2.4,1.4-5.5,0.6-6.8-1.8c-1.4-2.4-0.6-5.5,1.8-6.8l19.1-11c-7.2-0.8-14.7,0.5-21.4,4.4l-9,5.2
			C990,525.5,989.9,533.6,986.8,540.5z"/>
		<path class="st44" d="M936.5,522.1c3.1,5.3,4.7,11,5.2,16.7c1.5,0.8,3,1.7,4.3,2.8l40.3-23.3c-0.2-0.3-0.3-0.6-0.5-0.9v0
			c-6.9-11.9-22.2-16-34.2-9.2l-17.5,10.1C934.9,519.6,935.7,520.9,936.5,522.1L936.5,522.1z"/>
		<path class="st44" d="M951.8,548.5L951.8,548.5c0.2,0.3,0.3,0.6,0.5,0.9l9-5.2c8-4.6,17.1-5.7,25.5-3.7c3.1-6.8,3.2-15-0.5-22.1
			l-40.3,23.3C948.2,543.5,950.2,545.8,951.8,548.5z"/>
		<path class="st44" d="M857.1,534.6l54.2-31.3c-9.7-2.4-20.2-1.2-29.5,4.2l-69.9,40.4c-8.7,5-14.7,12.8-17.7,21.6l53.7-31
			C850.8,536.8,853.9,535.5,857.1,534.6z"/>
		<path class="st44" d="M910.8,522.5c1.8,3.1,0.7,7.1-2.4,8.9l-16.7,9.7c0.5,0.4,1,0.7,1.4,1.1l41-23.7c-2.4-3.3-5.3-6.1-8.4-8.4
			l-17.4,10C909.3,520.6,910.2,521.4,910.8,522.5z"/>
		<path class="st44" d="M900.1,549.5l17.5-10.1c7.6-4.4,16.7-4.3,24-0.5c-0.5-5.7-2.1-11.4-5.2-16.7l0,0c-0.7-1.3-1.5-2.5-2.4-3.7
			l-41,23.7C895.7,544.2,898,546.7,900.1,549.5z"/>
		<path class="st45" d="M1030.3,573.8l-10.7,6.2h63.7c-0.9-3-2.1-6-3.8-8.9l0,0c-7-12.1-19.5-19.2-32.6-19.9
			C1044.8,560.4,1039,568.8,1030.3,573.8z"/>
		<path class="st45" d="M1024.8,556.5l-12.7,7.3c1.7,5.3,2,10.8,1.2,16.2h6.3l10.7-6.2c8.8-5.1,14.5-13.4,16.6-22.6
			C1039.4,550.8,1031.7,552.5,1024.8,556.5z"/>
		<path class="st44" d="M942.4,500.4c3.1-1.8,4.2-5.8,2.4-8.9c-1.8-3.1-5.8-4.2-8.9-2.4l-24.6,14.2c5.1,1.3,10,3.5,14.4,6.7
			L942.4,500.4z"/>
		<path class="st44" d="M877.3,534.3l24.6-14.2c2-1.2,4.5-1.1,6.4,0l17.4-10c-4.3-3.2-9.2-5.5-14.4-6.7l-54.2,31.3
			C863.8,532.8,870.7,532.7,877.3,534.3z"/>
		<path class="st44" d="M1040.9,506.3c2.4-1.4,3.2-4.4,1.8-6.8c-1.4-2.4-4.4-3.2-6.8-1.8l-19.2,11.1c4.5,0.5,8.9,1.9,12.9,4.1
			L1040.9,506.3z"/>
		<path class="st44" d="M995.8,526.6c1.4,2.4,4.4,3.2,6.8,1.8l27-15.6c-4-2.2-8.4-3.6-12.9-4.1l-19.1,11
			C995.2,521.2,994.4,524.2,995.8,526.6z"/>
		<path class="st44" d="M1043.1,526L1043.1,526c0,0.1,0.1,0.1,0.1,0.2l25.7-14.9c2.4-1.4,3.2-4.4,1.8-6.8c-1.4-2.4-4.4-3.2-6.8-1.8
			l-26.9,15.6C1039.3,520.5,1041.4,523.1,1043.1,526z"/>
		<path class="st44" d="M1023.8,531.6c1.4,2.4,4.4,3.2,6.8,1.8l12.6-7.3c0-0.1-0.1-0.1-0.1-0.2v0c-1.7-2.9-3.8-5.5-6.1-7.8
			l-11.4,6.6C1023.2,526.2,1022.4,529.2,1023.8,531.6z"/>
		<path class="st45" d="M1009.1,557L1009.1,557c-5-8.7-13.2-14.4-22.3-16.5c-2.1,4.5-5.5,8.5-10.2,11.2l-21.7,12.6
			c-0.8,6-3.7,11.7-8.5,15.8h37.7l28-16.2C1011.4,561.5,1010.4,559.2,1009.1,557z"/>
		<path class="st45" d="M954.9,564.2l21.7-12.6c4.6-2.7,8.1-6.6,10.2-11.2c-8.4-2-17.5-0.9-25.5,3.7l-9,5.2
			C954.7,554.1,955.5,559.3,954.9,564.2z"/>
		<path class="st45" d="M1012.1,563.8l-28,16.2h29.2C1014.2,574.7,1013.8,569.1,1012.1,563.8z"/>
		<path class="st45" d="M941.7,544.1l4.2-2.4c-1.3-1.1-2.8-2-4.3-2.8C941.8,540.6,941.8,542.4,941.7,544.1z"/>
		<path class="st45" d="M938.8,557.2l13.4-7.8c-0.2-0.3-0.3-0.6-0.5-0.9v0c-1.5-2.7-3.5-5-5.8-6.8l-4.2,2.4
			C941.5,548.6,940.5,553,938.8,557.2z"/>
		<path class="st45" d="M902.5,553.1c2.1,3.6,3.5,7.3,4.3,11.2l34.9-20.2c0.1-1.7,0.1-3.5-0.1-5.3c-7.3-3.8-16.4-3.9-24,0.5
			l-17.5,10.1C900.9,550.6,901.7,551.9,902.5,553.1L902.5,553.1z"/>
		<path class="st45" d="M906.8,564.3c0.8,3.6,1.1,7.2,0.9,10.8l31.1-17.9c1.7-4.2,2.7-8.6,2.9-13.1L906.8,564.3z"/>
		<path class="st45" d="M954.9,564.2L927.5,580h18.8C951.1,575.9,954.1,570.2,954.9,564.2z"/>
		<path class="st45" d="M952.2,549.4l-13.4,7.8c-3.2,8-9,15-17,19.6l-5.6,3.2h11.3l27.4-15.8C955.5,559.3,954.7,554.1,952.2,549.4z"
			/>
		<path class="st45" d="M938.8,557.2l-31.1,17.9c-0.1,1.6-0.3,3.3-0.6,4.9h9.1l5.6-3.2C929.8,572.2,935.6,565.2,938.8,557.2z"/>
		<path class="st45" d="M827.5,580l65.6-37.9c-0.5-0.4-0.9-0.7-1.4-1.1l-65.5,37.8c-3.1,1.8-7.1,0.7-8.9-2.4
			c-1.8-3.1-0.7-7.1,2.4-8.9l34.1-19.7c-1-0.6-1.9-1.4-2.5-2.4c-1.8-3.1-0.7-7.1,2.4-8.9l3.5-2c-3.2,0.9-6.3,2.2-9.3,3.9l-53.7,31
			c-1.2,3.4-1.9,6.9-2.1,10.5H827.5z"/>
		<path class="st45" d="M893.1,542.1L827.5,580h19.7l52.9-30.5C898,546.7,895.7,544.2,893.1,542.1z"/>
		<path class="st45" d="M857.1,534.6l-3.5,2c-3.1,1.8-4.2,5.8-2.4,8.9c0.6,1.1,1.5,1.9,2.5,2.4l23.6-13.6
			C870.7,532.7,863.8,532.8,857.1,534.6z"/>
		<path class="st45" d="M906.8,564.3c-0.9-3.8-2.3-7.6-4.3-11.2l0,0c-0.7-1.3-1.5-2.5-2.4-3.7L847.2,580h32.7
			c0.9-0.6,1.8-1.2,2.8-1.8L906.8,564.3z"/>
		<path class="st45" d="M906.8,564.3l-24.1,13.9c-1,0.6-1.9,1.2-2.8,1.8h19.4l8.5-4.9C907.9,571.5,907.6,567.9,906.8,564.3z"/>
		<path class="st45" d="M899.3,580h7.9c0.3-1.6,0.5-3.2,0.6-4.9L899.3,580z"/>
		<path class="st45" d="M910.8,522.5c-0.6-1.1-1.5-1.9-2.5-2.4l-26.8,15.5c3.6,1.3,7.1,3.2,10.2,5.5l16.7-9.7
			C911.5,529.6,912.6,525.6,910.8,522.5z"/>
		<path class="st45" d="M908.3,520.1c-1.9-1.1-4.4-1.1-6.4,0l-24.6,14.2c1.4,0.3,2.8,0.8,4.1,1.2L908.3,520.1z"/>
		<path class="st45" d="M860.1,547.9c-2,1.2-4.5,1.1-6.4,0l-34.1,19.7c-3.1,1.8-4.2,5.8-2.4,8.9c1.8,3.1,5.8,4.2,8.9,2.4l65.5-37.8
			c-3.1-2.3-6.6-4.2-10.2-5.5L860.1,547.9z"/>
		<path class="st45" d="M860.1,547.9l21.3-12.3c-1.4-0.5-2.7-0.9-4.1-1.2l-23.6,13.6C855.7,549,858.1,549.1,860.1,547.9z"/>
	</g>
	<g>
		<path class="st46" d="M1332.6,129.7c3.1,5.3,9.9,7.2,15.2,4.1l18.2-10.5V97.5l-29.3,16.9C1331.3,117.5,1329.5,124.3,1332.6,129.7
			L1332.6,129.7z"/>
		<path class="st22" d="M1286.4,389L1286.4,389c-7.6-13.2-7.7-28.8-1.7-41.7l-22.8,13.2c-21.4,12.4-28.8,40-16.5,61.5v0
			c12.4,21.4,40,28.8,61.5,16.5l59.1-34.1v-9.3l-18.1,10.4C1326.5,417.9,1298.8,410.5,1286.4,389z"/>
		<path class="st47" d="M1284.7,347.4c-6,12.9-5.9,28.5,1.7,41.7v0c12.4,21.4,40,28.8,61.5,16.5l18.1-10.4v-94.6L1284.7,347.4z"/>
	</g>
	<polygon class="st48" points="109,290.7 100.3,289.8 94.7,296.5 92.8,287.9 84.7,284.6 92.3,280.2 92.9,271.5 99.4,277.3 
		107.9,275.2 104.4,283.2 	"/>
	<polygon class="st49" points="1011.2,447.6 1003.1,444.3 995.9,449.1 996.5,440.4 989.6,435 998.1,432.9 1001.2,424.7 
		1005.8,432.1 1014.6,432.5 1008.9,439.2 	"/>
	<polygon class="st50" points="444,123.8 436,120.3 428.6,125 429.4,116.3 422.7,110.7 431.2,108.8 434.5,100.7 438.9,108.2 
		447.6,108.8 441.9,115.3 	"/>
	<polygon class="st51" points="616.4,649.1 610.2,643 601.6,644.7 605.4,636.9 601.2,629.3 609.8,630.5 615.8,624.1 617.2,632.7 
		625.2,636.4 617.4,640.5 	"/>
	<polygon class="st52" points="967.1,423.5 961.6,422.9 958,427.1 956.9,421.8 951.8,419.7 956.5,416.9 956.9,411.4 961,415.1 
		966.4,413.8 964.2,418.8 	"/>
	<polygon class="st53" points="443.1,173.5 437.6,172.9 434,177.1 432.9,171.8 427.8,169.7 432.5,166.9 432.9,161.4 437,165.1 
		442.4,163.8 440.2,168.8 	"/>
	<polygon class="st54" points="363.5,500.2 358.3,498.3 353.8,501.4 354.1,495.9 349.7,492.6 355,491.1 356.8,485.9 359.8,490.5 
		365.3,490.7 361.9,494.9 	"/>
	<polygon class="st55" points="932.6,46.2 928.2,49.5 928.3,55 923.9,51.7 918.7,53.6 920.4,48.4 917,44 922.5,44 925.6,39.5 
		927.3,44.7 	"/>
	<polygon class="st56" points="1203.1,587.5 1197.6,586.9 1194,591.1 1192.9,585.8 1187.8,583.7 1192.5,580.9 1192.9,575.4 
		1197,579.1 1202.4,577.8 1200.2,582.8 	"/>
	<polygon class="st57" points="38.1,96.1 28.8,86 15.1,88 21.8,76 15.7,63.7 29.2,66.3 39.1,56.7 40.7,70.4 52.9,76.8 40.4,82.5 	
		"/>
	<polygon class="st58" points="587.8,49.7 581.7,37.4 568,35.5 577.8,25.9 575.4,12.3 587.6,18.6 599.8,12.2 597.5,25.7 607.4,35.3 
		593.8,37.3 	"/>
	<polygon class="st56" points="310.1,618.1 300.8,608 287.1,610 293.8,598 287.7,585.7 301.2,588.3 311.1,578.7 312.7,592.4 
		324.9,598.8 312.4,604.5 	"/>
	<polygon class="st59" points="1179.8,229.7 1173.7,217.4 1160,215.5 1169.8,205.9 1167.4,192.3 1179.6,198.6 1191.8,192.2 
		1189.5,205.7 1199.4,215.3 1185.8,217.3 	"/>
</g>
<g id="Layer_4" class="st60">
</g>
</svg>
