<?xml version="1.0" encoding="utf-8"?>
<!-- Generator: Adobe Illustrator 22.1.0, SVG Export Plug-In . SVG Version: 6.00 Build 0)  -->
<svg version="1.1" xmlns="http://www.w3.org/2000/svg" xmlns:xlink="http://www.w3.org/1999/xlink" x="0px" y="0px"
	 viewBox="0 0 1366 768" style="enable-background:new 0 0 1366 768;" xml:space="preserve">
<style type="text/css">
	.st0{fill:url(#SVGID_1_);}
	.st1{fill:#FFFFFF;}
	.st2{fill:#3DA6D2;}
	.st3{fill:#9BF9DF;}
	.st4{fill:#95F2DB;}
	.st5{fill:#3DB5E1;}
	.st6{fill:#78E5DD;}
	.st7{fill:#78EFE7;}
	.st8{fill:#78EFF1;}
	.st9{fill:#3BB1CE;}
	.st10{fill:#4DC4D3;}
	.st11{fill:#5EDAD6;}
	.st12{fill:#64E7CD;}
	.st13{fill:#5AD2D5;}
	.st14{fill:#44C4D0;}
	.st15{fill:#76F7D4;}
	.st16{fill:#85FDD0;}
	.st17{fill:#1D92C6;}
	.st18{fill:#42AED1;}
	.st19{fill:#1085C2;}
	.st20{fill:#3CA8CC;}
	.st21{fill:#1489C9;}
	.st22{fill:#1EA2C8;}
	.st23{fill:#68F0CA;}
	.st24{fill:#7DF7D4;}
	.st25{fill:#67E0D9;}
	.st26{fill:#78E5E1;}
	.st27{fill:#6FD9D5;}
	.st28{fill:#6BD8F4;}
	.st29{fill:#6BCDF4;}
	.st30{fill:#74D4FF;}
	.st31{fill:#74BDFF;}
	.st32{fill:#ACFFF2;}
	.st33{display:none;}
	.st34{display:inline;fill:#999999;stroke:#231F20;stroke-linecap:round;stroke-miterlimit:10;}
	.st35{display:inline;fill:none;stroke:#231F20;stroke-linecap:round;stroke-miterlimit:10;}
</style>
<g id="Layer_1">
	<g>
		<linearGradient id="SVGID_1_" gradientUnits="userSpaceOnUse" x1="683" y1="768" x2="683" y2="-9.094947e-13">
			<stop  offset="0" style="stop-color:#6FFFC4"/>
			<stop  offset="0.2013" style="stop-color:#64E8CD"/>
			<stop  offset="0.3725" style="stop-color:#59D1D6"/>
			<stop  offset="1" style="stop-color:#0075BE"/>
		</linearGradient>
		<rect class="st0" width="1366" height="768"/>
	</g>
</g>
<g id="Layer_3_copy_2">
	<polygon class="st1" points="332,1097 332,1097 332,1097 332,1097 	"/>
	<path class="st2" d="M1270,100h-5.8l7-4c14.3-8.3,19.2-26.7,11-41v0c-8.3-14.3-26.7-19.2-41-11l-98,56.6l-19.3,11.2
		c-0.3,0.3-0.6,0.5-1,0.7c-0.2,0.1-0.4,0.3-0.6,0.4c-2,1.6-3.8,3.4-5.6,5.2c-0.1,0.1-0.2,0.3-0.3,0.4c-2.6,4.1-4.6,8.6-5.6,13.5h98
		h97.2c1.1,0,2.2,0.2,3.3,0.5C1305.7,114,1289.4,100,1270,100z"/>
	<g>
		<path class="st3" d="M659.2,727.3L659.2,727.3c-4.2-7.2-10.6-12.3-17.9-14.8c-1.1-10.1-4.2-20.1-9.6-29.4l0,0
			c-4.6-7.9-10.4-14.7-17.1-20.2l8-4.6c35.7-20.6,48.1-66.7,27.5-102.5l0,0c-20.6-35.7-66.7-48.1-102.5-27.5l-114.3,66
			c-1-2.7-2.2-5.4-3.7-8l0,0c-13.8-23.8-44.5-32.1-68.3-18.3L13.2,769h9.3l278.9-161c23.8-13.7,54.6-5.5,68.3,18.3l0,0
			c1.5,2.6,2.7,5.3,3.7,8l114.3-66c35.7-20.6,81.8-8.3,102.5,27.5l0,0c20.6,35.7,8.3,81.8-27.5,102.5l-8,4.6
			c6.7,5.5,12.6,12.3,17.1,20.2l0,0c5.4,9.3,8.5,19.3,9.6,29.4c7.3,2.6,13.8,7.6,17.9,14.8v0c0.3,0.6,0.6,1.1,0.9,1.7H624h28.6
			C664.1,758.7,667.3,741.2,659.2,727.3z"/>
		<path class="st4" d="M599.2,767.3c-4.2-7.2-10.6-12.3-17.9-14.8c-1.1-10.1-4.2-20.1-9.6-29.4l0,0c-4.6-7.9-10.4-14.7-17.1-20.2
			l8-4.6c35.7-20.6,48.1-66.7,27.5-102.5l0,0c-20.6-35.7-66.7-48.1-102.5-27.5l-114.3,66c-1-2.7-2.2-5.4-3.7-8l0,0
			c-13.8-23.8-44.5-32.1-68.3-18.3L22.5,769H294h226h80.2C599.9,768.4,599.6,767.9,599.2,767.3L599.2,767.3z"/>
	</g>
	<path class="st5" d="M1270,100h-5.8l7-4c14.3-8.3,19.2-26.7,11-41v0c-8.3-14.3-26.7-19.2-41-11l-57.8,33.4l-1.7,1
		c-8.2,5.1-13.7,14.2-13.7,24.6c0,16,13,29,29,29h11.8h97.2c1.1,0,2.2,0.2,3.3,0.5C1305.7,114,1289.4,100,1270,100z"/>
	<g>
		<path class="st2" d="M635,152h4v-0.2C637.7,151.9,636.4,152,635,152z"/>
		<path class="st2" d="M602,119c0-10.7,5.1-20.2,13-26.3l0,0l-78.8,45.5c-5.1,3-8.2,8.2-8.7,13.8H635C616.8,152,602,137.2,602,119z"
			/>
		<path class="st5" d="M729.9,139.6L729.9,139.6c-5.2-9-13.5-15.2-22.7-18.1l10.7-6.2c11.9-6.9,16-22.2,9.2-34.2s-22.2-16-34.2-9.2
			l-31.8,18.4c-0.4-1.1-0.8-2.2-1.4-3.2c-4.8-8.3-15.6-11.2-23.9-6.4l-13.6,7.8c-2.5,1.1-4.9,2.4-7,4.1l-0.1,0.1l0,0
			c-7.9,6-13,15.5-13,26.3c0,18.2,14.8,33,33,33c1.4,0,2.7-0.1,4-0.2v0.2h95.5C733.7,147.8,732.2,143.6,729.9,139.6z"/>
	</g>
	<g>
		<path class="st6" d="M282.3,480.8c-0.6-1-1.1-2.1-1.4-3.2L249.1,496c-11.9,6.9-27.3,2.8-34.2-9.2c-6.6-11.4-3.1-25.8,7.5-33.1
			l-82.3,47.5c-5.1,3-8.2,8.2-8.7,13.8h207c-0.8-4.2-2.3-8.4-4.6-12.4v0c-5.2-9-13.5-15.2-22.7-18.1l10.7-6.2c0.6-0.3,1.1-0.7,1.6-1
			l-17.3,10C297.9,492.1,287.2,489.2,282.3,480.8z"/>
		<path class="st7" d="M331.1,444.2c-6.9-11.9-22.2-16-34.2-9.2l-31.8,18.4c-0.4-1.1-0.8-2.2-1.4-3.2c-4.8-8.3-15.6-11.2-23.9-6.4
			l-17.3,10c-10.7,7.3-14.1,21.8-7.5,33.1c6.9,11.9,22.2,16,34.2,9.2l31.8-18.4c0.4,1.1,0.8,2.2,1.4,3.2c4.8,8.3,15.6,11.2,23.9,6.4
			l17.3-10C334.2,470,337.6,455.5,331.1,444.2z"/>
	</g>
	<g>
		<path class="st6" d="M983.8,498.3c-0.2,0-0.3-0.1-0.5-0.1c-0.1,0-0.3-0.1-0.4-0.1c-4.7-1.4-8.9-4.5-11.5-9.1
			c-5.4-9.4-2.3-21.4,6.9-27l-18.6,10.7c-9.5,5.5-12.8,17.8-7.3,27.3c2.6,4.6,6.8,7.7,11.5,9.1c0.1,0,0.3,0.1,0.4,0.1
			c0.2,0,0.3,0.1,0.5,0.1c1.7,0.5,3.4,0.7,5.2,0.7h60c7.8,0,14.5-4.5,17.8-11H989C987.2,499,985.4,498.7,983.8,498.3z"/>
		<path class="st8" d="M1050,490c0-8.2-5-15.4-12.2-18.4c4.4-6.2,5.2-14.7,1.1-21.7v0c-5.5-9.5-17.8-12.8-27.3-7.3l-33.4,19.3
			c-9.2,5.6-12.3,17.7-6.9,27c2.6,4.6,6.8,7.7,11.5,9.1c0.1,0,0.3,0.1,0.4,0.1c0.2,0,0.3,0.1,0.5,0.1c1.7,0.5,3.4,0.7,5.2,0.7h58.8
			C1049.2,496.3,1050,493.2,1050,490L1050,490z"/>
	</g>
</g>
<g id="Layer_2">
	<path class="st9" d="M661.8,171.7l-225.2,130c-9.5,5.5-21.8,2.2-27.3-7.3l0,0c-5.5-9.5-2.2-21.8,7.3-27.3l225.2-130
		c9.5-5.5,21.8-2.2,27.3,7.3v0C674.6,153.9,671.3,166.2,661.8,171.7z"/>
	<path class="st10" d="M1332.8,284.7l-225.2,130c-9.5,5.5-21.8,2.2-27.3-7.3v0c-5.5-9.5-2.2-21.8,7.3-27.3l225.2-130
		c9.5-5.5,21.8-2.2,27.3,7.3v0C1345.6,266.9,1342.3,279.2,1332.8,284.7z"/>
	<path class="st11" d="M403.5,422.5l-103.9,60c-19.1,11-43.6,4.4-54.6-14.6l0,0c-11-19.1-4.4-43.6,14.6-54.6l103.9-60
		c19.1-11,43.6-4.4,54.6,14.6l0,0C429.2,387,422.6,411.5,403.5,422.5z"/>
	<path class="st12" d="M842.5,556.5l-103.9,60c-19.1,11-43.6,4.4-54.6-14.6v0c-11-19.1-4.4-43.6,14.6-54.6l103.9-60
		c19.1-11,43.6-4.4,54.6,14.6l0,0C868.2,521,861.6,545.5,842.5,556.5z"/>
	<path class="st13" d="M712.5,412l-147.2,85c-7.1,4.1-16.4,1.7-20.5-5.5v0c-4.1-7.1-1.7-16.4,5.5-20.5l147.2-85
		c7.1-4.1,16.4-1.7,20.5,5.5h0C722.1,398.6,719.6,407.9,712.5,412z"/>
	<path class="st14" d="M228.5,285L81.2,370c-7.1,4.1-16.4,1.7-20.5-5.5l0,0c-4.1-7.1-1.7-16.4,5.5-20.5l147.2-85
		c7.1-4.1,16.4-1.7,20.5,5.5h0C238.1,271.6,235.6,280.9,228.5,285z"/>
	<path class="st15" d="M434.5,667l-147.2,85c-7.1,4.1-16.4,1.7-20.5-5.5l0,0c-4.1-7.1-1.7-16.4,5.5-20.5l147.2-85
		c7.1-4.1,16.4-1.7,20.5,5.5v0C444.1,653.6,441.6,662.9,434.5,667z"/>
	<path class="st16" d="M1046.5,635l-147.2,85c-7.1,4.1-16.4,1.7-20.5-5.5l0,0c-4.1-7.1-1.7-16.4,5.5-20.5l147.2-85
		c7.1-4.1,16.4-1.7,20.5,5.5v0C1056.1,621.6,1053.6,630.9,1046.5,635z"/>
	<path class="st17" d="M221.5,48L74.2,133c-7.1,4.1-16.4,1.7-20.5-5.5l0,0c-4.1-7.1-1.7-16.4,5.5-20.5l147.2-85
		c7.1-4.1,16.4-1.7,20.5,5.5l0,0C231.1,34.6,228.6,43.9,221.5,48z"/>
	<path class="st11" d="M1052.5,355l-147.2,85c-7.1,4.1-16.4,1.7-20.5-5.5v0c-4.1-7.1-1.7-16.4,5.5-20.5l147.2-85
		c7.1-4.1,16.4-1.7,20.5,5.5l0,0C1062.1,341.6,1059.6,350.9,1052.5,355z"/>
	<path class="st18" d="M976.7,141.6l-73.6,42.5c-3.6,2.1-8.2,0.8-10.2-2.7l0,0c-2.1-3.6-0.8-8.2,2.7-10.2l73.6-42.5
		c3.6-2.1,8.2-0.8,10.2,2.7v0C981.5,135,980.3,139.6,976.7,141.6z"/>
	<path class="st19" d="M349.7,26.6l-73.6,42.5c-3.6,2.1-8.2,0.8-10.2-2.7v0c-2.1-3.6-0.8-8.2,2.7-10.2l73.6-42.5
		c3.6-2.1,8.2-0.8,10.2,2.7l0,0C354.5,20,353.3,24.6,349.7,26.6z"/>
	<path class="st20" d="M538.7,47.6l-73.6,42.5c-3.6,2.1-8.2,0.8-10.2-2.7v0c-2.1-3.6-0.8-8.2,2.7-10.2l73.6-42.5
		c3.6-2.1,8.2-0.8,10.2,2.7v0C543.5,41,542.3,45.6,538.7,47.6z"/>
	<g>
		<path class="st21" d="M453,42.9L453,42.9c11,19.1,35.6,25.6,54.6,14.6L607.3,0H454.8C446.3,12.3,445,29.1,453,42.9z"/>
		<path class="st22" d="M938.3,19c-23.8,13.7-32.1,44.5-18.3,68.3l0,0c13.7,23.8,44.5,32.1,68.3,18.3L1171.2,0h-200L938.3,19z"/>
	</g>
	<g>
		<path class="st15" d="M881.8,640L660.2,768h80l161.6-93.3c9.5-5.5,12.8-17.8,7.3-27.3C903.6,637.8,891.3,634.5,881.8,640z"/>
		<path class="st16" d="M1260.2,703.9L1260.2,703.9c-11-19.1-35.6-25.6-54.6-14.6l-103.9,60c-7.7,4.4-13.4,11.1-16.7,18.7h144.2
			l16.4-9.5C1264.6,747.5,1271.2,723,1260.2,703.9z"/>
		<path class="st16" d="M751.1,609.3L751.1,609.3c-13.8-23.8-44.5-32.1-68.3-18.3L466.3,716c-18.6,10.8-27.7,31.9-24.2,52h134.2
			l156.6-90.4C756.6,663.9,764.9,633.1,751.1,609.3z"/>
		<path class="st9" d="M153.8,199.7c9.5-5.5,12.8-17.8,7.3-27.3c-5.5-9.5-17.8-12.8-27.3-7.3L0,242.3v46.2L153.8,199.7z"/>
		<path class="st23" d="M0,655.3l96.5-55.7c19.1-11,25.6-35.6,14.6-54.6l0,0c-11-19.1-35.6-25.6-54.6-14.6L0,562.9"/>
		<path class="st24" d="M267.1,609.3c-13.7-23.8-44.5-32.1-68.3-18.3L0,705.8V768h92.2l156.6-90.4
			C272.6,663.9,280.9,633.1,267.1,609.3L267.1,609.3z"/>
		<path class="st25" d="M40.7,455.6c3.6-2.1,4.8-6.7,2.7-10.2s-6.7-4.8-10.2-2.7L0,461.8v17.3L40.7,455.6z"/>
	</g>
	<g>
		<path class="st25" d="M1315.6,533.1c-3.6,2.1-4.8,6.7-2.7,10.2c2.1,3.6,6.7,4.8,10.2,2.7l42.9-24.8v-17.3L1315.6,533.1z"/>
	</g>
</g>
<g id="Layer_3_copy">
	<polygon class="st1" points="332,1097 332,1097 332,1097 332,1097 	"/>
	<g>
		<path class="st26" d="M1022,295h-0.9c-0.3-4.5-1.6-8.9-3.9-13v0c-4.9-8.6-13.5-13.8-22.7-14.8l2.4-1.4
			c18.6-10.7,25-34.7,14.3-53.3l-1-1.7c-10.7-18.6-34.7-25-53.3-14.3l-39.5,22.8c-0.1-0.2-0.2-0.5-0.4-0.7v0
			c-6.9-11.9-22.2-16-34.2-9.2l-71.4,41.2c-0.4-1-0.9-2.1-1.5-3.1v0c-6.9-11.9-22.2-16-34.2-9.2L678,295h-7c-3.5,0-6.7,1.5-8.9,4
			h17.6l63.2-36.5c11.9-6.9,27.3-2.8,34.2,9.2v0c0.6,1,1.1,2,1.5,3.1l71.4-41.2c11.9-6.9,27.3-2.8,34.2,9.2v0
			c0.1,0.2,0.2,0.5,0.4,0.7l39.5-22.8c18.6-10.7,42.5-4.3,53.3,14.3l1,1.7c10.7,18.6,4.3,42.5-14.3,53.3l-2.4,1.4
			c6.3,0.7,12.4,3.4,17.1,7.8h52.3C1028.7,296.6,1025.5,295,1022,295z"/>
		<path class="st27" d="M963.9,289.8c18.6-10.7,25-34.7,14.3-53.3l-1-1.7c-10.7-18.6-34.7-25-53.3-14.3l-39.5,22.8
			c-0.1-0.2-0.2-0.5-0.4-0.7v0c-6.9-11.9-22.2-16-34.2-9.2l-71.4,41.2c-0.4-1-0.9-2.1-1.5-3.1v0c-6.9-11.9-22.2-16-34.2-9.2
			L679.6,299h299c-4.8-4.4-10.8-7.1-17.1-7.8L963.9,289.8z"/>
	</g>
	<g>
		<path class="st28" d="M172.1,252.5L172.1,252.5c1.1,1.9,1.7,3.9,1.9,6l73.5-42.4c23.8-13.7,54.6-5.5,68.3,18.3v0
			c10.2,17.7,8.3,39.2-3.1,54.7h24.2c-3.6-4.2-8.3-7.3-13.4-9c15.9-15.6,19.9-40.6,8.3-60.7v0c-13.8-23.8-44.5-32.1-68.3-18.3
			L190,243.4c-0.2-2-0.8-4.1-1.9-6v0c-4.1-7.1-13.3-9.6-20.5-5.5L107,267c-3.8,2.2-6.3,5.9-7.1,9.9l51.8-29.9
			C158.7,242.9,168,245.3,172.1,252.5z"/>
		<path class="st29" d="M101,286.5c0.4,0.3,0.7,0.7,1,1.1c0.2,0.2,0.4,0.3,0.6,0.5c0.2,0.1,0.3,0.2,0.5,0.3c0.1,0,0.2,0.1,0.2,0.1
			c0.6,0.2,1.1,0.4,1.7,0.5c0.1,0,0.1,0.1,0.2,0.1h207.6c11.4-15.5,13.3-37,3.1-54.7v0c-13.8-23.8-44.5-32.1-68.3-18.3L174,258.4
			c-0.2-2-0.8-4.1-1.9-6v0c-4.1-7.1-13.3-9.6-20.5-5.5l-51.8,29.9C99.2,280,99.5,283.4,101,286.5z"/>
	</g>
	<g>
		<path class="st28" d="M1144.5,323h-4c-2.2,10.5-8.7,20-18.6,25.8l-2.4,1.4c6.3,0.7,12.4,3.4,17.1,7.8h7.9
			c9.6,0,17.5-7.9,17.5-17.5v0C1162,330.9,1154.1,323,1144.5,323z"/>
		<path class="st29" d="M1121.9,348.8c10-5.7,16.4-15.3,18.6-25.8h-51c-9.6,0-17.5,7.9-17.5,17.5v0c0,9.6,7.9,17.5,17.5,17.5h47.1
			c-4.8-4.4-10.8-7.1-17.1-7.8L1121.9,348.8z"/>
	</g>
	<g>
		<path class="st30" d="M447.6,180.3c0.1-0.2,0.2-0.5,0.4-0.7v0c2-3.5,4.8-6.3,8-8.4c0-0.1,0-0.2,0-0.2c0-8.3-6.8-15-15-15h-35.8
			c1,0.5,2,1,2.9,1.5L447.6,180.3z"/>
		<path class="st31" d="M386,171c0,8.3,6.8,15,15,15h40c8.2,0,14.9-6.6,15-14.8c-3.2,2.1-6,4.9-8,8.4v0c-0.1,0.2-0.2,0.5-0.4,0.7
			l-39.5-22.8c-1-0.6-1.9-1.1-2.9-1.5H401C392.8,156,386,162.8,386,171z"/>
	</g>
	<g>
		<path class="st32" d="M1029.2,668.1L1029.2,668.1c1.6,2.7,2.7,5.5,3.5,8.4l40.8-23.6c19.4-11.2,43.4-7.8,59,6.7l39.3-22.7
			c28.6-16.5,65.5-6.6,82,22v0c15.2,26.3,8,59.5-15.4,77.5c9.5,1.9,18.2,7.6,23.5,16.5h24.7c-0.4-5-1.9-10-4.6-14.7l0,0
			c-5.2-9.1-14-14.9-23.6-16.8c23.4-18,30.5-51.3,15.4-77.5v0c-16.5-28.6-53.4-38.5-82-22l-39.3,22.7c-15.7-14.5-39.6-17.9-59-6.7
			l-40.8,23.6c-0.8-2.9-1.9-5.7-3.5-8.4v0c-9.6-16.7-31.1-22.4-47.8-12.8L828.8,740H813c-8.5,0-15.8,5.4-18.7,13h12h6l169.2-97.7
			C998.1,645.7,1019.6,651.5,1029.2,668.1z"/>
		<path class="st3" d="M946.3,753h60.8h87.3h92.3h5.1h13.2h56.9c-5.3-8.9-14-14.6-23.5-16.5c23.4-18,30.5-51.3,15.4-77.5v0
			c-16.5-28.6-53.4-38.5-82-22l-39.3,22.7c-15.7-14.5-39.6-17.9-59-6.7l-40.8,23.6c-0.8-2.9-1.9-5.7-3.5-8.4v0
			c-9.6-16.7-31.1-22.4-47.8-12.8L812.2,753h91.9H946.3z"/>
	</g>
</g>
<g id="Layer_6">
	<path class="st3" d="M580.3,557.8l79.7-46c1.9-1.1,2.6-3.6,1.5-5.5l0,0c-1.1-1.9-3.6-2.6-5.5-1.5l-79.7,46
		c-1.9,1.1-2.6,3.6-1.5,5.5l0,0C575.9,558.3,578.4,558.9,580.3,557.8z"/>
	<path class="st3" d="M587,574.6l62-35.8c1.9-1.1,2.6-3.6,1.5-5.5l0,0c-1.1-1.9-3.6-2.6-5.5-1.5l-62,35.8c-1.9,1.1-2.6,3.6-1.5,5.5
		l0,0C582.6,575.1,585.1,575.7,587,574.6z"/>
	<path class="st10" d="M1283.3,276.8l79.7-46c1.9-1.1,2.6-3.6,1.5-5.5v0c-1.1-1.9-3.6-2.6-5.5-1.5l-79.7,46
		c-1.9,1.1-2.6,3.6-1.5,5.5v0C1278.9,277.3,1281.4,277.9,1283.3,276.8z"/>
	<path class="st10" d="M1271.3,301.8l79.7-46c1.9-1.1,2.6-3.6,1.5-5.5v0c-1.1-1.9-3.6-2.6-5.5-1.5l-79.7,46
		c-1.9,1.1-2.6,3.6-1.5,5.5v0C1266.9,302.3,1269.4,302.9,1271.3,301.8z"/>
	<path class="st28" d="M310.5,205.7l16.2-9.3c1.9-1.1,2.6-3.6,1.5-5.5l0,0c-1.1-1.9-3.6-2.6-5.5-1.5l-16.2,9.3
		c-1.9,1.1-2.6,3.6-1.5,5.5v0C306.1,206.2,308.6,206.8,310.5,205.7z"/>
	<path class="st28" d="M311.5,218.7l16.2-9.3c1.9-1.1,2.6-3.6,1.5-5.5l0,0c-1.1-1.9-3.6-2.6-5.5-1.5l-16.2,9.3
		c-1.9,1.1-2.6,3.6-1.5,5.5v0C307.1,219.2,309.6,219.8,311.5,218.7z"/>
	<path class="st28" d="M177.5,247.7l16.2-9.3c1.9-1.1,2.6-3.6,1.5-5.5l0,0c-1.1-1.9-3.6-2.6-5.5-1.5l-16.2,9.3
		c-1.9,1.1-2.6,3.6-1.5,5.5v0C173.1,248.2,175.6,248.8,177.5,247.7z"/>
	<path class="st5" d="M698.3,86.8l25.4-14.6c1.9-1.1,2.6-3.6,1.5-5.5v0c-1.1-1.9-3.6-2.6-5.5-1.5l-25.4,14.6
		c-1.9,1.1-2.6,3.6-1.5,5.5v0C693.9,87.3,696.4,87.9,698.3,86.8z"/>
	<path class="st5" d="M717.3,90.8l25.4-14.6c1.9-1.1,2.6-3.6,1.5-5.5v0c-1.1-1.9-3.6-2.6-5.5-1.5l-25.4,14.6
		c-1.9,1.1-2.6,3.6-1.5,5.5v0C712.9,91.3,715.4,91.9,717.3,90.8z"/>
	<path class="st5" d="M705.3,144.8l25.4-14.6c1.9-1.1,2.6-3.6,1.5-5.5v0c-1.1-1.9-3.6-2.6-5.5-1.5l-25.4,14.6
		c-1.9,1.1-2.6,3.6-1.5,5.5l0,0C700.9,145.3,703.4,145.9,705.3,144.8z"/>
	<path class="st23" d="M106.3,568.8l25.4-14.6c1.9-1.1,2.6-3.6,1.5-5.5l0,0c-1.1-1.9-3.6-2.6-5.5-1.5l-25.4,14.6
		c-1.9,1.1-2.6,3.6-1.5,5.5h0C101.9,569.3,104.4,569.9,106.3,568.8z"/>
	<path class="st23" d="M111.2,550.7l35.5-20.5c1.9-1.1,2.6-3.6,1.5-5.5l0,0c-1.1-1.9-3.6-2.6-5.5-1.5l-35.5,20.5
		c-1.9,1.1-2.6,3.6-1.5,5.5h0C106.8,551.1,109.3,551.8,111.2,550.7z"/>
	<path class="st22" d="M881.3,85.8l49-28.3c1.9-1.1,2.6-3.6,1.5-5.5v0c-1.1-1.9-3.6-2.6-5.5-1.5l-49,28.3c-1.9,1.1-2.6,3.6-1.5,5.5
		v0C876.9,86.3,879.4,86.9,881.3,85.8z"/>
	<path class="st22" d="M907.3,90.8l49-28.3c1.9-1.1,2.6-3.6,1.5-5.5v0c-1.1-1.9-3.6-2.6-5.5-1.5l-49,28.3c-1.9,1.1-2.6,3.6-1.5,5.5
		v0C902.9,91.3,905.4,91.9,907.3,90.8z"/>
</g>
<g id="Layer_3" class="st33">
	<rect x="740.5" y="224.5" class="st34" width="40" height="50"/>
	<path class="st35" d="M760.5,224.5c0,13.8-8.9,25-20,25"/>
	<path class="st35" d="M760.5,224.5c0,12.7,8.9,23,20,23"/>
	<path class="st35" d="M760.5,274.5c0-14.9,8.9-27,20-27"/>
	<path class="st35" d="M760.5,274.5c0-13.8-8.9-25-20-25"/>
</g>
</svg>
