<?xml version="1.0" encoding="UTF-8"?>
<svg id="Layer_1" data-name="Layer 1" xmlns="http://www.w3.org/2000/svg" viewBox="0 0 1698.22 22.67">
  <defs>
    <style>
      .cls-1 {
        fill: #3562ff;
      }
    </style>
  </defs>
  <g>
    <polygon class="cls-1" points="544.03 11.33 529.9 16.33 42.89 11.33 529.9 6.33 544.03 11.33"/>
    <polygon class="cls-1" points="41.64 11.33 55.77 16.33 542.77 11.33 55.77 6.33 41.64 11.33"/>
  </g>
  <g>
    <polygon class="cls-1" points="1656.61 11.33 1642.48 16.33 1155.48 11.33 1642.48 6.33 1656.61 11.33"/>
    <polygon class="cls-1" points="1154.23 11.33 1168.36 16.33 1655.36 11.33 1168.36 6.33 1154.23 11.33"/>
  </g>
  <polygon class="cls-1" points="21.67 11.32 15 15.67 10.83 22.16 6.59 15.59 0 11.32 6.54 7.11 10.83 .49 15 6.98 21.67 11.32"/>
  <polygon class="cls-1" points="1698.22 11.33 1691.55 15.68 1687.38 22.17 1683.14 15.6 1676.55 11.33 1683.09 7.12 1687.38 .5 1691.55 6.99 1698.22 11.33"/>
  <polygon class="cls-1" points="585.92 11.83 579.25 16.18 575.08 22.67 570.84 16.1 564.25 11.83 570.79 7.62 575.08 1 579.25 7.49 585.92 11.83"/>
  <polygon class="cls-1" points="1120.92 10.83 1114.25 15.18 1110.08 21.67 1105.84 15.1 1099.25 10.83 1105.79 6.62 1110.08 0 1114.25 6.49 1120.92 10.83"/>
  <g>
    <polygon class="cls-1" points="1071.08 11.33 1058.57 16.33 627.38 11.33 1058.57 6.33 1071.08 11.33"/>
    <polygon class="cls-1" points="626.28 11.33 638.79 16.33 1069.98 11.33 638.79 6.33 626.28 11.33"/>
  </g>
</svg>