<?xml version="1.0" encoding="utf-8"?>
<!-- Generator: Adobe Illustrator 27.7.0, SVG Export Plug-In . SVG Version: 6.00 Build 0)  -->
<svg version="1.1" id="Layer_1" xmlns="http://www.w3.org/2000/svg" xmlns:xlink="http://www.w3.org/1999/xlink" x="0px" y="0px"
	 viewBox="0 0 1710 128" style="enable-background:new 0 0 1710 128;" xml:space="preserve">
<style type="text/css">
	.st0{fill:#3562FF;}
</style>
<g>
	<polygon class="st0" points="554.94,64 540.81,69 53.81,64 540.81,59 	"/>
	<polygon class="st0" points="52.56,64 66.69,69 553.69,64 66.69,59 	"/>
</g>
<g>
	<polygon class="st0" points="1667.52,64 1653.4,69 1166.39,64 1653.4,59 	"/>
	<polygon class="st0" points="1165.14,64 1179.27,69 1666.27,64 1179.27,59 	"/>
</g>
<polygon class="st0" points="32.58,63.99 25.92,68.34 21.75,74.82 17.51,68.26 10.92,63.99 17.45,59.77 21.75,53.16 25.92,59.64 "/>
<polygon class="st0" points="1709.13,64 1702.47,68.35 1698.3,74.83 1694.06,68.27 1687.47,64 1694,59.78 1698.3,53.17 
	1702.47,59.65 "/>
<polygon class="st0" points="607.83,64.5 601.17,68.85 597,75.33 592.76,68.77 586.17,64.5 592.7,60.28 597,53.67 601.17,60.15 "/>
<polygon class="st0" points="1131.83,63.5 1125.17,67.85 1121,74.33 1116.76,67.77 1110.17,63.5 1116.7,59.28 1121,52.67 
	1125.17,59.15 "/>
<g>
	<polygon class="st0" points="1082,64 1069.49,69 638.3,64 1069.49,59 	"/>
	<polygon class="st0" points="637.19,64 649.7,69 1080.89,64 649.7,59 	"/>
</g>
</svg>
