<?xml version="1.0" encoding="utf-8"?>
<!-- Generator: Adobe Illustrator 23.0.3, SVG Export Plug-In . SVG Version: 6.00 Build 0)  -->
<svg version="1.1" xmlns="http://www.w3.org/2000/svg" xmlns:xlink="http://www.w3.org/1999/xlink" x="0px" y="0px"
	 viewBox="0 0 1366 768" style="enable-background:new 0 0 1366 768;" xml:space="preserve">
<style type="text/css">
	.st0{fill:url(#SVGID_1_);}
	.st1{fill:#C5A7FF;}
	.st2{fill:#A593FF;}
	.st3{fill:#F3B3FF;}
	.st4{fill:#A995FF;}
	.st5{fill:#A291FF;}
	.st6{fill:#EFBFFF;}
	.st7{fill:none;}
	.st8{fill:#F2B8FF;}
	.st9{fill:#F7C2FF;}
	.st10{fill:#EFABFF;}
	.st11{fill:#F0ADFF;}
	.st12{fill:#F1AFFF;}
	.st13{fill:#F6C4FF;}
	.st14{fill:#FEC8FF;}
	.st15{fill:#AA96FF;}
	.st16{fill:#D5B0FF;}
	.st17{fill:#EEBFFF;}
	.st18{fill:#F9BDFF;}
	.st19{fill:#F8BCFF;}
	.st20{fill:#BA9FFF;}
	.st21{fill:#C5A6FF;}
	.st22{fill:#B09AFF;}
	.st23{fill:#D6B1FF;}
	.st24{fill:#FEC9FF;}
	.st25{fill:#D0ADFF;}
	.st26{fill:#C6A7FF;}
	.st27{fill:#F0C0FF;}
	.st28{fill:#D6B0FF;}
	.st29{fill:#A895FF;}
	.st30{fill:#F7BBFF;}
</style>
<g id="Background">
	<g>
		<linearGradient id="SVGID_1_" gradientUnits="userSpaceOnUse" x1="683" y1="768" x2="683" y2="-9.094947e-13">
			<stop  offset="0" style="stop-color:#ECA6FF"/>
			<stop  offset="0.3184" style="stop-color:#FFC9FF"/>
			<stop  offset="0.3966" style="stop-color:#EDBEFF"/>
			<stop  offset="0.5674" style="stop-color:#CBAAFF"/>
			<stop  offset="0.7296" style="stop-color:#B29BFF"/>
			<stop  offset="0.878" style="stop-color:#A392FF"/>
			<stop  offset="1" style="stop-color:#9E8FFF"/>
		</linearGradient>
		<rect class="st0" width="1366" height="768"/>
	</g>
</g>
<g id="Layer_3">
	<path class="st1" d="M736.5,273.63L476.98,423.46c-11.83,6.83-27.09,2.74-33.92-9.09v0c-6.83-11.83-2.74-27.09,9.09-33.92
		l259.51-149.83c11.83-6.83,27.09-2.74,33.92,9.09v0C752.41,251.53,748.32,266.8,736.5,273.63z"/>
	<path class="st2" d="M1082.62,95.62l-134.27,77.52c-8.68,5.01-19.87,2.01-24.88-6.67v0c-5.01-8.68-2.01-19.87,6.67-24.88
		l134.27-77.52c8.68-5.01,19.87-2.01,24.88,6.67v0C1094.29,79.42,1091.29,90.61,1082.62,95.62z"/>
	<path class="st3" d="M1330.14,568.41l-136.33,78.71c-6.65,3.84-15.23,1.54-19.07-5.11l0,0c-3.84-6.65-1.54-15.23,5.11-19.07
		l136.33-78.71c6.65-3.84,15.23-1.54,19.07,5.11l0,0C1339.09,555.99,1336.79,564.57,1330.14,568.41z"/>
	<path class="st4" d="M1330.14,155.49l-136.33,78.71c-6.65,3.84-15.23,1.54-19.07-5.11v0c-3.84-6.65-1.54-15.23,5.11-19.07
		l136.33-78.71c6.65-3.84,15.23-1.54,19.07,5.11v0C1339.09,143.07,1336.79,151.65,1330.14,155.49z"/>
	<path class="st5" d="M692.74,110.02l-73.9,42.66c-5.02,2.9-11.49,1.16-14.39-3.86v0c-2.9-5.02-1.16-11.49,3.86-14.39l73.9-42.66
		c5.02-2.9,11.49-1.16,14.39,3.86v0C699.5,100.65,697.76,107.12,692.74,110.02z"/>
	<path class="st6" d="M686.41,492.44l-73.9,42.66c-5.02,2.9-11.49,1.16-14.39-3.86l0,0c-2.9-5.02-1.16-11.49,3.86-14.39l73.9-42.66
		c5.02-2.9,11.49-1.16,14.39,3.86v0C693.17,483.07,691.43,489.55,686.41,492.44z"/>
	<g>
		<polygon class="st7" points="0,765.43 134.12,687.99 0,765.43 		"/>
		<path class="st8" d="M443.49,557.12c-22.4-38.8-72.47-52.22-111.27-29.81L141.28,637.55c1.78,1.84,3.36,3.92,4.69,6.23v0
			c8.9,15.42,3.57,35.31-11.85,44.21L0,765.43V768h209.21l126.99-73.32c12.39-7.16,26.68-8.28,39.42-4.32l38.05-21.97
			C452.47,645.99,465.89,595.92,443.49,557.12L443.49,557.12z"/>
		<path class="st9" d="M399.82,768c12.03-15.43,14.28-37.3,3.93-55.22l0,0c-6.44-11.16-16.66-18.85-28.13-22.42L241.15,768H399.82z"
			/>
		<path class="st9" d="M336.2,694.68L209.21,768h31.93l134.48-77.64C362.88,686.4,348.6,687.53,336.2,694.68z"/>
		<path class="st10" d="M1110.98,688.02L1110.98,688.02c-13.6-23.55-44-31.7-67.55-18.1L873.55,768h197.8l21.53-12.43
			C1116.43,741.97,1124.58,711.57,1110.98,688.02z"/>
		<path class="st11" d="M866.76,692.64c-13.89-24.07-44.95-32.39-69.02-18.49L635.18,768h202.1l10.99-6.34
			C872.33,747.76,880.66,716.7,866.76,692.64L866.76,692.64z"/>
		<path class="st12" d="M101.76,631.93L0,690.68v28.43l141.28-81.57C131.2,627.09,114.86,624.36,101.76,631.93z"/>
		<path class="st12" d="M134.12,687.99c15.42-8.9,20.75-28.8,11.85-44.21v0c-1.33-2.31-2.92-4.39-4.69-6.23L0,719.11v6.55v39.76
			L134.12,687.99z"/>
	</g>
</g>
<g id="Layer_2">
	<path class="st13" d="M449.84,575.59L449.84,575.59c-4.83-8.36-12.75-13.88-21.51-15.95c22.41-13.89,29.97-43.41,16.7-66.4v0
		c-13.53-23.43-43.77-31.53-67.2-18.01l-121.2,69.97c-0.52-1.22-1.12-2.43-1.8-3.61l0,0c-9.3-16.11-30.1-21.69-46.21-12.38
		L96.42,593.99h75.71h59.61h118.57h18.59h85.4C454.6,587.75,453.18,581.37,449.84,575.59z"/>
	<path class="st14" d="M1246.85,393.44L1246.85,393.44c-16.82-29.13-54.41-39.2-83.54-22.38l-63.85,36.86
		c-1.25-4.8-3.15-9.51-5.74-14l0,0c-15.66-27.13-50.67-36.51-77.8-20.85l-121.9,70.38c-0.8-3.79-2.18-7.52-4.22-11.05v0
		c-10.38-17.98-33.59-24.2-51.57-13.82l-190.7,110.1c-6.86,3.96-12,9.79-15.17,16.48h85.48H770h91.76h83.91h117.14h43.56h100.4
		c2.12-10.06,0.7-20.9-4.81-30.45l0,0c-3.89-6.74-9.36-12.03-15.68-15.68l38.19-22.05C1253.6,460.16,1263.67,422.56,1246.85,393.44z
		"/>
	<path class="st15" d="M1039.81,94.76l-6.66-2.58l4.99-5.71c6.66-6.95,11.12-15.43,6.35-23.69l0,0
		c-4.77-8.26-15.43-11.12-23.69-6.35l-68.22,39.39c-4.74,2.74-7.7,7.42-8.46,12.47c-0.28,1.23-0.43,2.5-0.43,3.81v0
		c0,9.54,7.8,17.34,17.34,17.34h78.77c9.54,0,17.34-7.8,17.34-17.34v0C1057.15,102.57,1049,97.81,1039.81,94.76z"/>
	<path class="st16" d="M888.76,232.66L888.76,232.66c-9.86-17.07-31.89-22.98-48.96-13.12l-30.66,17.7
		c-0.53-1.4-1.18-2.78-1.96-4.12c-7.87-13.63-25.45-18.34-39.08-10.47l-119.14,68.79c-9.77,4.56-16.58,14.49-16.58,25.93v0
		c0,15.73,12.87,28.61,28.61,28.61h10.09h93.1h89.59c15.73,0,28.61-12.87,28.61-28.61v0c0-13.08-8.9-24.17-20.94-27.55l14.2-8.2
		C892.71,271.76,898.61,249.73,888.76,232.66z"/>
	<path class="st17" d="M143.25,416.38c5.9-5.93,7.39-15.33,3.02-22.9l0,0c-5.22-9.05-16.9-12.18-25.95-6.95L64.93,418.5
		c-4.29,2.47-7.22,6.4-8.6,10.81c-0.02,0.05-0.03,0.1-0.05,0.15c-0.14,0.48-0.27,0.95-0.37,1.44c-0.04,0.17-0.08,0.34-0.11,0.51
		c-0.08,0.4-0.13,0.8-0.18,1.2c-0.03,0.24-0.06,0.48-0.09,0.72c-0.03,0.37-0.05,0.73-0.06,1.1c-0.01,0.2-0.03,0.39-0.03,0.6v0
		c0,0.07,0.01,0.15,0.01,0.22c0,0.33,0.03,0.66,0.05,0.99c0.02,0.31,0.03,0.62,0.07,0.92c0.03,0.26,0.08,0.52,0.12,0.79
		c0.06,0.37,0.11,0.73,0.19,1.09c0.04,0.19,0.1,0.38,0.15,0.58c0.11,0.42,0.21,0.84,0.35,1.25c0.05,0.14,0.1,0.28,0.15,0.42
		c0.16,0.46,0.33,0.92,0.53,1.36c0.05,0.11,0.11,0.22,0.16,0.32c0.22,0.48,0.46,0.94,0.71,1.4c0.01,0.03,0.03,0.05,0.04,0.08
		c0.04,0.07,0.09,0.13,0.13,0.2c0.27,0.46,0.56,0.91,0.87,1.34c0.06,0.08,0.12,0.16,0.18,0.24c0.33,0.44,0.67,0.87,1.03,1.28
		c0.03,0.04,0.07,0.07,0.1,0.11c3.49,3.91,8.54,6.4,14.16,6.4h65.22c10.45,0,19-8.55,19-19v0
		C158.67,425.81,152,418.07,143.25,416.38z"/>
	<path class="st18" d="M1049.34,685.46c5.9-5.93,7.39-15.33,3.02-22.9v0c-5.22-9.05-16.9-12.18-25.95-6.95l-55.38,31.97
		c-4.29,2.47-7.22,6.4-8.6,10.81c-0.02,0.05-0.03,0.1-0.05,0.15c-0.14,0.48-0.27,0.95-0.37,1.44c-0.04,0.17-0.08,0.34-0.11,0.51
		c-0.08,0.4-0.13,0.8-0.18,1.2c-0.03,0.24-0.06,0.48-0.09,0.72c-0.03,0.37-0.05,0.73-0.06,1.1c-0.01,0.2-0.03,0.39-0.03,0.6v0
		c0,0.07,0.01,0.15,0.01,0.22c0,0.33,0.03,0.66,0.05,0.99c0.02,0.31,0.03,0.62,0.07,0.92c0.03,0.26,0.08,0.52,0.12,0.79
		c0.06,0.37,0.11,0.73,0.19,1.09c0.04,0.19,0.1,0.38,0.15,0.58c0.11,0.42,0.21,0.84,0.35,1.25c0.05,0.14,0.1,0.28,0.15,0.42
		c0.16,0.46,0.33,0.92,0.53,1.36c0.05,0.11,0.11,0.22,0.16,0.32c0.22,0.48,0.46,0.94,0.71,1.4c0.01,0.03,0.03,0.05,0.04,0.08
		c0.04,0.07,0.09,0.13,0.13,0.2c0.27,0.46,0.56,0.91,0.87,1.34c0.06,0.08,0.12,0.16,0.18,0.24c0.33,0.44,0.67,0.87,1.03,1.28
		c0.03,0.04,0.07,0.07,0.1,0.11c3.49,3.91,8.54,6.4,14.16,6.4h65.22c10.45,0,19-8.55,19-19v0
		C1064.76,694.88,1058.09,687.15,1049.34,685.46z"/>
	<path class="st19" d="M625.57,697.5h-9.03c3.56-6.35,3.81-14.36-0.07-21.09v0c-3.58-6.2-9.86-9.9-16.52-10.52
		c0.72-5.59-0.31-11.45-3.32-16.68v0c-7.33-12.69-23.71-17.08-36.4-9.75l-29.46,17.01c-6.7-6.12-16.89-7.53-25.15-2.76l-80.86,46.68
		c-0.33,0.19-0.64,0.41-0.96,0.62c-0.12,0.08-0.25,0.16-0.37,0.24c-0.51,0.35-1,0.71-1.47,1.1c-0.04,0.03-0.08,0.06-0.12,0.09
		c-0.5,0.42-0.99,0.86-1.45,1.32c-0.02,0.02-0.04,0.04-0.05,0.05c-0.45,0.45-0.88,0.92-1.28,1.41c-0.04,0.05-0.09,0.11-0.14,0.16
		c-0.36,0.44-0.7,0.9-1.02,1.36c-0.1,0.14-0.19,0.28-0.28,0.42c-0.25,0.38-0.49,0.77-0.71,1.17c-0.14,0.25-0.29,0.51-0.42,0.77
		c-0.15,0.3-0.3,0.6-0.44,0.91c-0.17,0.37-0.33,0.74-0.48,1.11c-0.09,0.22-0.17,0.45-0.25,0.67c-0.16,0.45-0.31,0.9-0.43,1.36
		c-0.05,0.19-0.1,0.38-0.15,0.56c-0.12,0.48-0.23,0.96-0.31,1.44c-0.04,0.22-0.07,0.44-0.1,0.66c-0.07,0.44-0.12,0.89-0.16,1.33
		c-0.03,0.33-0.04,0.65-0.05,0.98c-0.01,0.25-0.04,0.5-0.04,0.76v0c0,0.09,0.01,0.18,0.01,0.28c0.01,0.48,0.03,0.95,0.07,1.41
		c0.02,0.21,0.02,0.41,0.05,0.62c0.07,0.64,0.16,1.26,0.29,1.88c0.01,0.04,0.01,0.08,0.02,0.13c0.09,0.44,0.2,0.87,0.32,1.3
		c0.08,0.3,0.17,0.6,0.27,0.9c0.02,0.05,0.04,0.11,0.05,0.16c0.45,1.38,1.02,2.73,1.77,4.03c2.03,3.51,4.93,6.21,8.27,8.03
		c0.06,0.03,0.13,0.07,0.19,0.1c0.47,0.25,0.96,0.48,1.45,0.7c0.21,0.09,0.41,0.18,0.62,0.27c0.37,0.15,0.75,0.28,1.12,0.41
		c0.32,0.11,0.64,0.22,0.97,0.31c0.3,0.09,0.61,0.16,0.91,0.24c0.38,0.09,0.77,0.18,1.16,0.25c0.29,0.05,0.59,0.09,0.89,0.14
		c0.39,0.05,0.77,0.11,1.16,0.14c0.35,0.03,0.71,0.04,1.07,0.05c0.24,0.01,0.48,0.04,0.73,0.04h19.28h37.42h5.16h51.08h77.14
		c11.77,0,21.39-9.63,21.39-21.39v0C646.96,707.13,637.34,697.5,625.57,697.5z"/>
	<path class="st20" d="M560.47,221.75c-4.68-8.1-12.49-13.3-21.03-15.03c20.4-18.8,25.91-50.02,11.49-74.99v0
		c-16.69-28.9-53.99-38.9-82.89-22.21l-25.18,14.54c-0.71-1.89-1.54-3.75-2.58-5.55v0c-10.46-18.11-33.83-24.37-51.94-13.92
		l-61.55,35.54c-8.23-13.46-25.88-18.04-39.62-10.11L107.06,234.01h57.12h60.05h28.2h63.84h160.1h18.77h69.32
		C564,229.8,562.71,225.63,560.47,221.75z"/>
	<path class="st21" d="M1268.61,246.75L1268.61,246.75c-3.49-6.04-9.22-10.03-15.55-11.53c16.2-10.04,21.66-31.38,12.07-47.99v0
		c-9.78-16.94-31.64-22.79-48.57-13.01l-87.6,50.58c-0.38-0.88-0.81-1.76-1.3-2.61v0c-6.72-11.65-21.76-15.67-33.4-8.95
		l-81.11,46.83h54.73h43.08h85.7h13.44h61.73C1272.04,255.54,1271.02,250.93,1268.61,246.75z"/>
</g>
<g id="Layer_4">
	<path class="st22" d="M263.04,81.54L52.61,203.02c-8.68,5.01-19.87,2.01-24.88-6.67l0,0c-5.01-8.68-2.01-19.87,6.67-24.88
		L244.82,49.99c8.68-5.01,19.87-2.01,24.88,6.67l0,0C274.71,65.33,271.71,76.53,263.04,81.54z"/>
	<path class="st23" d="M1321.08,300.02l-73.9,42.66c-5.02,2.9-11.49,1.16-14.39-3.86l0,0c-2.9-5.02-1.16-11.49,3.86-14.39
		l73.9-42.66c5.02-2.9,11.49-1.16,14.39,3.86v0C1327.83,290.64,1326.09,297.12,1321.08,300.02z"/>
	<path class="st24" d="M1062.45,547.4l-148.9,85.96c-10.11,5.84-23.16,2.34-28.99-7.77h0c-5.84-10.11-2.34-23.16,7.77-28.99
		l148.9-85.96c10.11-5.84,23.16-2.34,28.99,7.77l0,0C1076.05,528.51,1072.56,541.56,1062.45,547.4z"/>
	<path class="st25" d="M459.19,254.14l-119.8,69.16c-15.77,9.1-36.11,3.65-45.22-12.12l0,0c-9.1-15.77-3.65-36.11,12.12-45.22
		l119.8-69.16c15.77-9.1,36.11-3.65,45.22,12.12l0,0C480.41,224.69,474.96,245.03,459.19,254.14z"/>
	<path class="st26" d="M923.24,233.03l-73.9,42.66c-5.02,2.9-11.49,1.16-14.39-3.86l0,0c-2.9-5.02-1.16-11.49,3.86-14.39l73.9-42.66
		c5.02-2.9,11.49-1.16,14.39,3.86v0C929.99,223.66,928.25,230.14,923.24,233.03z"/>
	<path class="st27" d="M346.17,408.97l-93.92,54.22c-6.38,3.68-14.61,1.48-18.29-4.9h0c-3.68-6.38-1.48-14.61,4.9-18.29l93.92-54.22
		c6.38-3.68,14.61-1.48,18.29,4.9l0,0C354.75,397.06,352.55,405.29,346.17,408.97z"/>
	<g>
		<path class="st28" d="M169.72,279.99L169.72,279.99c-7.19-12.45-23.25-16.75-35.69-9.56L0,347.81v60.34l160.16-92.47
			C172.61,308.5,176.91,292.44,169.72,279.99z"/>
	</g>
	<g>
		<path class="st2" d="M1242.28,20.99c-6.47,3.74-8.71,12.08-4.97,18.55c3.74,6.47,12.08,8.71,18.55,4.97L1332.96,0h-54.33
			L1242.28,20.99z"/>
		<path class="st29" d="M827.24,9.66c-12.45,7.19-16.75,23.25-9.56,35.69l0,0c7.19,12.45,23.25,16.75,35.69,9.56L948.48,0H843.96
			L827.24,9.66z"/>
		<path class="st15" d="M452.42,2.47c-19.49,11.25-26.23,36.4-14.98,55.89l0,0c11.25,19.49,36.4,26.23,55.89,14.98L620.35,0H456.7
			L452.42,2.47z"/>
	</g>
	<g>
		<path class="st30" d="M1297.16,666.49L1121.33,768H1366V667.69C1345.68,655.11,1319.21,653.76,1297.16,666.49z"/>
	</g>
	<path class="st20" d="M577.63,92.29l-70.08,40.46c-2.38,1.38-5.46,0.55-6.83-1.83l0,0c-1.38-2.38-0.55-5.46,1.83-6.83l70.08-40.46
		c2.38-1.38,5.46-0.55,6.83,1.83v0C580.83,87.84,580.01,90.91,577.63,92.29z"/>
	<path class="st20" d="M561.96,122.47l-70.08,40.46c-2.38,1.37-5.46,0.55-6.83-1.83l0,0c-1.38-2.38-0.55-5.46,1.83-6.83l70.08-40.46
		c2.38-1.38,5.46-0.55,6.83,1.83v0C565.16,118.02,564.34,121.1,561.96,122.47z"/>
	<path class="st24" d="M1089.67,504.03l-70.08,40.46c-2.38,1.38-5.46,0.55-6.83-1.83l0,0c-1.38-2.38-0.55-5.46,1.83-6.83
		l70.08-40.46c2.38-1.38,5.46-0.55,6.83,1.83v0C1092.87,499.58,1092.05,502.66,1089.67,504.03z"/>
	<path class="st24" d="M931.07,611.96l-70.08,40.46c-2.38,1.38-5.46,0.55-6.83-1.83l0,0c-1.38-2.38-0.55-5.46,1.83-6.83l70.08-40.46
		c2.38-1.38,5.46-0.55,6.83,1.83l0,0C934.27,607.51,933.45,610.58,931.07,611.96z"/>
	<path class="st13" d="M496.5,473.02l-70.08,40.46c-2.38,1.38-5.46,0.55-6.83-1.83l0,0c-1.38-2.38-0.55-5.46,1.83-6.83l70.08-40.46
		c2.38-1.38,5.46-0.55,6.83,1.83v0C499.7,468.57,498.88,471.65,496.5,473.02z"/>
	<path class="st13" d="M440.66,474.25l-70.08,40.46c-2.38,1.38-5.46,0.55-6.83-1.83l0,0c-1.38-2.38-0.55-5.46,1.83-6.83l70.08-40.46
		c2.38-1.38,5.46-0.55,6.83,1.83h0C443.87,469.8,443.04,472.88,440.66,474.25z"/>
	<path class="st16" d="M833.22,210.26l-70.08,40.46c-2.38,1.38-5.46,0.55-6.83-1.83l0,0c-1.38-2.38-0.55-5.46,1.83-6.83l70.08-40.46
		c2.38-1.38,5.46-0.55,6.83,1.83l0,0C836.43,205.81,835.6,208.88,833.22,210.26z"/>
	<path class="st16" d="M921.67,204.12l-70.08,40.46c-2.38,1.38-5.46,0.55-6.83-1.83v0c-1.38-2.38-0.55-5.46,1.83-6.83l70.08-40.46
		c2.38-1.38,5.46-0.55,6.83,1.83v0C924.87,199.67,924.05,202.74,921.67,204.12z"/>
	<path class="st21" d="M1280.26,153.58l-70.08,40.46c-2.38,1.38-5.46,0.55-6.83-1.83l0,0c-1.38-2.38-0.55-5.46,1.83-6.83
		l70.08-40.46c2.38-1.38,5.46-0.55,6.83,1.83v0C1283.46,149.13,1282.64,152.2,1280.26,153.58z"/>
	<path class="st21" d="M1269.36,178.89l-70.08,40.46c-2.38,1.38-5.46,0.55-6.83-1.83v0c-1.38-2.38-0.55-5.46,1.83-6.83l70.08-40.46
		c2.38-1.38,5.46-0.55,6.83,1.83v0C1272.57,174.45,1271.74,177.52,1269.36,178.89z"/>
	<path class="st21" d="M1289.15,188.72l-70.08,40.46c-2.38,1.37-5.46,0.55-6.83-1.83l0,0c-1.38-2.38-0.55-5.46,1.83-6.83
		l70.08-40.46c2.38-1.38,5.46-0.55,6.83,1.83l0,0C1292.35,184.27,1291.53,187.34,1289.15,188.72z"/>
	<path class="st14" d="M1083.95,368.1l-70.08,40.46c-2.38,1.38-5.46,0.55-6.83-1.83l0,0c-1.38-2.38-0.55-5.46,1.83-6.83l70.08-40.46
		c2.38-1.38,5.46-0.55,6.83,1.83l0,0C1087.15,363.65,1086.33,366.73,1083.95,368.1z"/>
	<path class="st14" d="M1269.36,355.3l-70.08,40.46c-2.38,1.38-5.46,0.55-6.83-1.83l0,0c-1.38-2.38-0.55-5.46,1.83-6.83l70.08-40.46
		c2.38-1.38,5.46-0.55,6.83,1.83l0,0C1272.57,350.85,1271.74,353.92,1269.36,355.3z"/>
	<path class="st14" d="M1263.78,393.33l-70.08,40.46c-2.38,1.38-5.46,0.55-6.83-1.83l0,0c-1.38-2.38-0.55-5.46,1.83-6.83
		l70.08-40.46c2.38-1.38,5.46-0.55,6.83,1.83l0,0C1266.98,388.88,1266.16,391.95,1263.78,393.33z"/>
	<path class="st28" d="M188.89,261.37l-70.08,40.46c-2.38,1.38-5.46,0.55-6.83-1.83h0c-1.38-2.38-0.55-5.46,1.83-6.83l70.08-40.46
		c2.38-1.38,5.46-0.55,6.83,1.83v0C192.09,256.92,191.27,259.99,188.89,261.37z"/>
	<path class="st19" d="M530,722.52l-70.08,40.46c-2.38,1.38-5.46,0.55-6.83-1.83h0c-1.38-2.38-0.55-5.46,1.83-6.83L525,713.86
		c2.38-1.38,5.46-0.55,6.83,1.83l0,0C533.2,718.07,532.38,721.14,530,722.52z"/>
	<path class="st19" d="M589.33,716.92l-70.08,40.46c-2.38,1.38-5.46,0.55-6.83-1.83l0,0c-1.38-2.38-0.55-5.46,1.83-6.83l70.08-40.46
		c2.38-1.38,5.46-0.55,6.83,1.83l0,0C592.54,712.47,591.71,715.55,589.33,716.92z"/>
	<path class="st1" d="M465.97,389.79l-70.08,40.46c-2.38,1.38-5.46,0.55-6.83-1.83l0,0c-1.38-2.38-0.55-5.46,1.83-6.83l70.08-40.46
		c2.38-1.38,5.46-0.55,6.83,1.83l0,0C469.17,385.34,468.35,388.42,465.97,389.79z"/>
	<path class="st1" d="M506,386.25l-70.08,40.46c-2.38,1.38-5.46,0.55-6.83-1.83h0c-1.38-2.38-0.55-5.46,1.83-6.83L501,377.59
		c2.38-1.38,5.46-0.55,6.83,1.83l0,0C509.2,381.81,508.38,384.88,506,386.25z"/>
	<path class="st17" d="M168.35,379.35l-70.08,40.46c-2.38,1.38-5.46,0.55-6.83-1.83h0c-1.38-2.38-0.55-5.46,1.83-6.83l70.08-40.46
		c2.38-1.38,5.46-0.55,6.83,1.83v0C171.56,374.9,170.73,377.98,168.35,379.35z"/>
</g>
</svg>
