<?xml version="1.0" encoding="utf-8"?>
<!-- Generator: Adobe Illustrator 22.1.0, SVG Export Plug-In . SVG Version: 6.00 Build 0)  -->
<svg version="1.1" xmlns="http://www.w3.org/2000/svg" xmlns:xlink="http://www.w3.org/1999/xlink" x="0px" y="0px"
	 viewBox="0 0 1366 768" style="enable-background:new 0 0 1366 768;" xml:space="preserve">
<style type="text/css">
	.st0{fill:url(#SVGID_1_);}
	.st1{fill:#FF8D6B;}
	.st2{fill:#FF916A;}
	.st3{fill:#FF687A;}
	.st4{fill:#FF6B78;}
	.st5{fill:#FF926A;}
	.st6{fill:#FF3F8A;}
	.st7{fill:#FD9F6B;}
	.st8{fill:#F5E572;}
	.st9{fill:#F7D871;}
	.st10{fill:#FF677A;}
	.st11{fill:#FF896C;}
	.st12{fill:#FCAD6D;}
	.st13{fill:#FF7D71;}
	.st14{fill:#FDA16C;}
	.st15{fill:#FF657B;}
	.st16{fill:#FF5880;}
	.st17{fill:#FF607D;}
	.st18{fill:#F5E672;}
</style>
<g id="Background">
	<g>
		<linearGradient id="SVGID_1_" gradientUnits="userSpaceOnUse" x1="683" y1="768" x2="683" y2="-9.094947e-13">
			<stop  offset="0" style="stop-color:#F5E772"/>
			<stop  offset="2.879675e-02" style="stop-color:#F6DE71"/>
			<stop  offset="0.1506" style="stop-color:#FABC6E"/>
			<stop  offset="0.2662" style="stop-color:#FDA36C"/>
			<stop  offset="0.372" style="stop-color:#FE946A"/>
			<stop  offset="0.459" style="stop-color:#FF8F6A"/>
			<stop  offset="0.5996" style="stop-color:#FF7973"/>
			<stop  offset="0.9944" style="stop-color:#FF3F8A"/>
		</linearGradient>
		<rect class="st0" width="1366" height="768"/>
	</g>
</g>
<g id="Layer_3">
	<path class="st1" d="M318.4,449L70.5,592.1c-16.7,9.7-38.1,3.9-47.8-12.8l0,0c-9.7-16.7-3.9-38.1,12.8-47.8l247.9-143.1
		c16.7-9.7,38.1-3.9,47.8,12.8l0,0C340.9,417.9,335.2,439.3,318.4,449z"/>
	<path class="st2" d="M1178.2,430.4L942.9,566.3c-12,6.9-27.2,2.8-34.2-9.2h0c-6.9-12-2.8-27.2,9.2-34.2l235.3-135.9
		c12-6.9,27.2-2.8,34.2,9.2v0C1194.3,408.2,1190.2,423.5,1178.2,430.4z"/>
	<path class="st3" d="M704.2,243.7l-144.9,83.7c-12,6.9-27.2,2.8-34.2-9.2l0,0c-6.9-12-2.8-27.2,9.2-34.2l144.9-83.7
		c12-6.9,27.2-2.8,34.2,9.2v0C720.3,221.5,716.2,236.8,704.2,243.7z"/>
	<path class="st3" d="M882.4,270.9l-154.9,89.4c-9.6,5.5-21.8,2.2-27.3-7.3v0c-5.5-9.6-2.2-21.8,7.3-27.3l154.9-89.4
		c9.6-5.5,21.8-2.2,27.3,7.3v0C895.2,253.1,891.9,265.3,882.4,270.9z"/>
	<path class="st4" d="M247.4,259.9L92.5,349.3c-9.6,5.5-21.8,2.2-27.3-7.3l0,0c-5.5-9.6-2.2-21.8,7.3-27.3l154.9-89.4
		c9.6-5.5,21.8-2.2,27.3,7.3l0,0C260.2,242.1,256.9,254.3,247.4,259.9z"/>
	<path class="st5" d="M869.3,513.3l-185.3,107c-12,6.9-27.2,2.8-34.2-9.2h0c-6.9-12-2.8-27.2,9.2-34.2l185.3-107
		c12-6.9,27.2-2.8,34.2,9.2v0C885.3,491.1,881.2,506.4,869.3,513.3z"/>
	<path class="st6" d="M864.1,66.9l-86.9,50.2c-7.2,4.1-16.3,1.7-20.5-5.5v0c-4.1-7.2-1.7-16.3,5.5-20.5l86.9-50.2
		c7.2-4.1,16.3-1.7,20.5,5.5v0C873.7,53.6,871.2,62.8,864.1,66.9z"/>
</g>
<g id="Clouds">
	<path class="st7" d="M807.7,514.6c4.7-10.1,4.6-22.3-1.4-32.6l0,0c-5.1-8.9-13.6-14.7-22.9-16.8c18.6-13.7,24.4-39.7,12.6-60.2
		L792,398c-12.7-22-41-29.5-63-16.9l-75.5,43.6c-12.8-21.7-40.9-29.2-62.8-16.6l-174,100.4h-45.4c-18.3,0-34,11.4-40.4,27.4h38.4
		h91.5h92.9h88.5h19.3h122h42.7C822.6,527,816,519.5,807.7,514.6z"/>
	<path class="st4" d="M361.2,166.9L361.2,166.9c-6.1-10.6-15.1-18.6-25.4-23.6l10.3-5.9c19.1-11,25.7-35.7,14.7-54.9l0,0
		c-11-19.1-35.7-25.7-54.9-14.7l-42.2,24.3c-0.4-1.1-1-2.3-1.6-3.4c-6.9-11.9-22.2-16-34.2-9.2l-154.2,89c-5.3,3.1-9.1,7.9-11,13.3
		h61.4h26.6h66.2h51.9h98.4C365.9,176.8,363.9,171.8,361.2,166.9z"/>
	<path class="st1" d="M400.7,296.2c10.1-6.8,13.4-20.6,7.2-31.3v0c-6.5-11.2-21-15.1-32.2-8.6l-41.5,24c-0.1-1.7-0.6-3.5-1.6-5.1v0
		c-3.3-5.7-10.7-7.7-16.5-4.4l-40.9,23.6c-2.8,1-5.3,2.6-7.5,4.6c-0.3,0.2-0.5,0.5-0.8,0.7c-4.3,4.3-7,10.2-7,16.8v0
		c0,9.9,6.2,18.4,14.8,21.9c2.7,1.1,5.7,1.7,8.8,1.7H325l63.6,0c13,0,23.6-10.6,23.6-23.6v0C412.2,307.9,407.6,300.4,400.7,296.2z"
		/>
	<path class="st8" d="M901.3,735.1L901.3,735.1c-2.1-3.7-4.9-6.8-8.1-9.2c8.7-10,10.6-24.9,3.6-37.1h0
		c-8.8-15.2-28.5-20.5-43.7-11.7L827,692.3c-0.3-4.7-1.6-9.3-4.1-13.6v0c-8.6-15-28-20.1-42.9-11.5l-37.6,21.7
		c-6.6-7.9-18.3-10.2-27.5-4.9L615,741.7h-17.6c-7.8,0-14.6,4.1-18.4,10.3h20h71.4h13.5h39.7h35.2h50.5h42.3h28.6h25.3
		C905.7,746.3,904.4,740.4,901.3,735.1z"/>
	<path class="st9" d="M1282.1,579.2L1282.1,579.2c-10.3-17.9-33.4-24-51.2-13.7l-37.7,21.8c-0.3-0.7-0.6-1.4-1-2
		c-5.8-10-18.7-13.5-28.7-7.7l-107.3,61.9c-5.2,3-8.6,7.9-9.9,13.3c-0.8,2.3-1.3,4.7-1.3,7.2v0c0,11.5,9.4,21,21,21h37h77.9h67.2
		c11.6,0,21-9.5,21-21v0c0-10-7-18.3-16.3-20.5l15.8-9.1C1286.3,620.1,1292.5,597.1,1282.1,579.2z"/>
	<path class="st10" d="M831.1,114.6c8.5-5.6,11.3-17,6.2-25.9c-5.3-9.2-17.3-12.4-26.5-7.1l-57.3,33.1c-2.6,1.5-4.7,3.5-6.3,5.8
		c-3.2,3.5-5.2,8.1-5.2,13.1c0,10.7,8.7,19.4,19.4,19.4h66.2c10.7,0,19.4-8.7,19.4-19.4C847,124.1,840.1,116.2,831.1,114.6z"/>
	<path class="st11" d="M1184.5,282.2h-23.6l14.6-8.5c11.4-6.6,15.4-21.3,8.8-32.7h0c-6.6-11.4-21.3-15.4-32.7-8.8l-93.8,54.2
		c-5.1,2.9-8.6,7.4-10.5,12.6c-1.4,3.3-2.2,6.9-2.2,10.6v0c0,4.5,1.1,8.7,3,12.5h2.8h40.9h117c1.9-3.7,3-8,3-12.5v0
		C1211.8,294.5,1199.5,282.2,1184.5,282.2z"/>
</g>
<g id="Layer_4">
	<path class="st12" d="M950.3,382.4L776,483c-10.8,6.2-24.5,2.5-30.7-8.2l0,0c-6.2-10.8-2.5-24.5,8.2-30.7l174.3-100.6
		c10.8-6.2,24.5-2.5,30.7,8.2l0,0C964.8,362.4,961.1,376.2,950.3,382.4z"/>
	<path class="st13" d="M483,236.1L386.2,292c-6,3.5-13.6,1.4-17.1-4.6l0,0c-3.5-6-1.4-13.6,4.6-17.1l96.8-55.9
		c6-3.5,13.6-1.4,17.1,4.6v0C491.1,225,489,232.7,483,236.1z"/>
	<path class="st9" d="M815.6,603.4L681.2,681c-6,3.5-13.6,1.4-17.1-4.6l0,0c-3.5-6-1.4-13.6,4.6-17.1l134.4-77.6
		c6-3.5,13.6-1.4,17.1,4.6l0,0C823.7,592.3,821.6,600,815.6,603.4z"/>
	<g>
		<path class="st14" d="M1231.9,477.1c-8.4,4.8-11.2,15.5-6.4,23.9c4.8,8.4,15.5,11.2,23.9,6.4L1366,440v-40.4L1231.9,477.1z"/>
		<path class="st8" d="M1299.7,700.4c-6,3.5-8,11.1-4.6,17.1c3.5,6,11.1,8,17.1,4.6l53.8-31v-28.9L1299.7,700.4z"/>
		<path class="st15" d="M1264.1,0l-144,83.1c-21.5,12.4-28.9,39.9-16.5,61.5v0c12.4,21.5,39.9,28.9,61.5,16.5l200.9-116V0H1264.1z"
			/>
		<path class="st16" d="M522.6,83.9L522.6,83.9c17.9,31.1,57.6,41.7,88.7,23.8L797.7,0H539.2C513.8,19.5,506.1,55.4,522.6,83.9z"/>
		<path class="st17" d="M62.3,61.1c-12,6.9-16.1,22.2-9.2,34.2h0c6.9,12,22.2,16.1,34.2,9.2l144.9-83.7c7.7-4.5,12.2-12.4,12.5-20.7
			h-76.6L62.3,61.1z"/>
	</g>
	<g>
		<path class="st18" d="M626.5,618L626.5,618c-13.4-23.2-43.1-31.2-66.4-17.8l-158.2,91.3c-0.4-2.1-1.2-4.1-2.3-6
			c-5.5-9.6-17.8-12.8-27.3-7.3l-38.9,22.5c14.3-18.4,16.8-44.3,4.5-65.7l0,0c-16.3-28.2-52.4-37.9-80.6-21.6l-47.1,27.2
			c-17.5-24.3-50.9-31.8-77.3-16.5L0,700.8v61.2v6.1h119.7h97.3h8.7h44h27.3h167.1l144.8-83.6C631.9,671,639.9,641.3,626.5,618z"/>
		<path class="st18" d="M1200,674.5L1200,674.5c-13.8-23.9-44.4-32.1-68.3-18.3L938.1,768h200l43.7-25.2
			C1205.7,729,1213.9,698.4,1200,674.5z"/>
	</g>
</g>
<g id="Layer_5">
	<path class="st18" d="M370.3,581.2l-159.3,92c-3.6,2.1-8.2,0.8-10.2-2.7l0,0c-2.1-3.6-0.8-8.2,2.7-10.2l159.3-92
		c3.6-2.1,8.2-0.8,10.2,2.7l0,0C375.2,574.6,373.9,579.2,370.3,581.2z"/>
	<path class="st18" d="M370.3,615.2l-159.3,92c-3.6,2.1-8.2,0.8-10.2-2.7l0,0c-2.1-3.6-0.8-8.2,2.7-10.2l159.3-92
		c3.6-2.1,8.2-0.8,10.2,2.7l0,0C375.2,608.6,373.9,613.2,370.3,615.2z"/>
	<path class="st4" d="M379.3,60.2l-159.3,92c-3.6,2.1-8.2,0.8-10.2-2.7v0c-2.1-3.6-0.8-8.2,2.7-10.2l159.3-92
		c3.6-2.1,8.2-0.8,10.2,2.7v0C384.2,53.6,382.9,58.2,379.3,60.2z"/>
	<path class="st4" d="M379.3,149.2l-43.8,25.3c-3.6,2.1-8.2,0.8-10.2-2.7v0c-2.1-3.6-0.8-8.2,2.7-10.2l43.8-25.3
		c3.6-2.1,8.2-0.8,10.2,2.7v0C384.2,142.6,382.9,147.2,379.3,149.2z"/>
	<path class="st15" d="M1112.3,124.2L1059,155c-3.6,2.1-8.2,0.8-10.2-2.7v0c-2.1-3.6-0.8-8.2,2.7-10.2l53.3-30.8
		c3.6-2.1,8.2-0.8,10.2,2.7v0C1117.2,117.6,1115.9,122.2,1112.3,124.2z"/>
	<path class="st15" d="M1133.3,136.2l-43.8,25.3c-3.6,2.1-8.2,0.8-10.2-2.7v0c-2.1-3.6-0.8-8.2,2.7-10.2l43.8-25.3
		c3.6-2.1,8.2-0.8,10.2,2.7v0C1138.2,129.6,1136.9,134.2,1133.3,136.2z"/>
	<path class="st12" d="M994.3,334.2l-159.3,92c-3.6,2.1-8.2,0.8-10.2-2.7v0c-2.1-3.6-0.8-8.2,2.7-10.2l159.3-92
		c3.6-2.1,8.2-0.8,10.2,2.7v0C999.2,327.6,997.9,332.2,994.3,334.2z"/>
	<path class="st7" d="M814.3,359.2l-159.3,92c-3.6,2.1-8.2,0.8-10.2-2.7v0c-2.1-3.6-0.8-8.2,2.7-10.2l159.3-92
		c3.6-2.1,8.2-0.8,10.2,2.7v0C819.2,352.6,817.9,357.2,814.3,359.2z"/>
	<path class="st8" d="M929.1,685.9L828,744.2c-3.6,2.1-8.2,0.8-10.2-2.7l0,0c-2.1-3.6-0.8-8.2,2.7-10.2l101.1-58.4
		c3.6-2.1,8.2-0.8,10.2,2.7v0C933.9,679.2,932.7,683.8,929.1,685.9z"/>
</g>
</svg>
